%TF.GenerationSoftware,KiCad,Pcbnew,10.0.5*%
%TF.CreationDate,2026-09-09T15:21:58-03:00*%
%TF.ProjectId,LoadCellRF,4c6f6164-4365-46c6-9c52-462e6b696361,rev?*%
%TF.SameCoordinates,Original*%
%TF.FileFunction,Copper,L1,Top*%
%TF.FilePolarity,Positive*%
%FSLAX46Y46*%
G04 Gerber Fmt 4.6, Leading zero omitted, Abs format (unit mm)*
G04 Created by KiCad (PCBNEW 10.0.5) date 2026-09-09 15:21:58*
%MOMM*%
%LPD*%
G01*
G04 APERTURE LIST*
G04 Aperture macros list*
%AMRoundRect*
0 Rectangle with rounded corners*
0 $1 Rounding radius*
0 $2 $3 $4 $5 $6 $7 $8 $9 X,Y pos of 4 corners*
0 Add a 4 corners polygon primitive as box body*
4,1,4,$2,$3,$4,$5,$6,$7,$8,$9,$2,$3,0*
0 Add four circle primitives for the rounded corners*
1,1,$1+$1,$2,$3*
1,1,$1+$1,$4,$5*
1,1,$1+$1,$6,$7*
1,1,$1+$1,$8,$9*
0 Add four rect primitives between the rounded corners*
20,1,$1+$1,$2,$3,$4,$5,0*
20,1,$1+$1,$4,$5,$6,$7,0*
20,1,$1+$1,$6,$7,$8,$9,0*
20,1,$1+$1,$8,$9,$2,$3,0*%
G04 Aperture macros list end*
%ADD10C,0.300000*%
%TA.AperFunction,NonConductor*%
%ADD11C,0.300000*%
%TD*%
%TA.AperFunction,ComponentPad*%
%ADD12C,1.750000*%
%TD*%
%TA.AperFunction,ComponentPad*%
%ADD13RoundRect,0.250000X0.725000X-0.600000X0.725000X0.600000X-0.725000X0.600000X-0.725000X-0.600000X0*%
%TD*%
%TA.AperFunction,ComponentPad*%
%ADD14O,1.950000X1.700000*%
%TD*%
%TA.AperFunction,ViaPad*%
%ADD15C,0.600000*%
%TD*%
%TA.AperFunction,Conductor*%
%ADD16C,0.200000*%
%TD*%
%TA.AperFunction,Conductor*%
%ADD17C,0.400000*%
%TD*%
G04 APERTURE END LIST*
D10*
D11*
X86054510Y-116885912D02*
X86054510Y-115385912D01*
X86054510Y-115385912D02*
X86625939Y-115385912D01*
X86625939Y-115385912D02*
X86768796Y-115457341D01*
X86768796Y-115457341D02*
X86840225Y-115528769D01*
X86840225Y-115528769D02*
X86911653Y-115671626D01*
X86911653Y-115671626D02*
X86911653Y-115885912D01*
X86911653Y-115885912D02*
X86840225Y-116028769D01*
X86840225Y-116028769D02*
X86768796Y-116100198D01*
X86768796Y-116100198D02*
X86625939Y-116171626D01*
X86625939Y-116171626D02*
X86054510Y-116171626D01*
X88197368Y-116885912D02*
X88197368Y-116100198D01*
X88197368Y-116100198D02*
X88125939Y-115957341D01*
X88125939Y-115957341D02*
X87983082Y-115885912D01*
X87983082Y-115885912D02*
X87697368Y-115885912D01*
X87697368Y-115885912D02*
X87554510Y-115957341D01*
X88197368Y-116814484D02*
X88054510Y-116885912D01*
X88054510Y-116885912D02*
X87697368Y-116885912D01*
X87697368Y-116885912D02*
X87554510Y-116814484D01*
X87554510Y-116814484D02*
X87483082Y-116671626D01*
X87483082Y-116671626D02*
X87483082Y-116528769D01*
X87483082Y-116528769D02*
X87554510Y-116385912D01*
X87554510Y-116385912D02*
X87697368Y-116314484D01*
X87697368Y-116314484D02*
X88054510Y-116314484D01*
X88054510Y-116314484D02*
X88197368Y-116243055D01*
X87983082Y-115314484D02*
X87768796Y-115528769D01*
X88840225Y-116814484D02*
X88983082Y-116885912D01*
X88983082Y-116885912D02*
X89268796Y-116885912D01*
X89268796Y-116885912D02*
X89411653Y-116814484D01*
X89411653Y-116814484D02*
X89483082Y-116671626D01*
X89483082Y-116671626D02*
X89483082Y-116600198D01*
X89483082Y-116600198D02*
X89411653Y-116457341D01*
X89411653Y-116457341D02*
X89268796Y-116385912D01*
X89268796Y-116385912D02*
X89054511Y-116385912D01*
X89054511Y-116385912D02*
X88911653Y-116314484D01*
X88911653Y-116314484D02*
X88840225Y-116171626D01*
X88840225Y-116171626D02*
X88840225Y-116100198D01*
X88840225Y-116100198D02*
X88911653Y-115957341D01*
X88911653Y-115957341D02*
X89054511Y-115885912D01*
X89054511Y-115885912D02*
X89268796Y-115885912D01*
X89268796Y-115885912D02*
X89411653Y-115957341D01*
X90054511Y-116814484D02*
X90197368Y-116885912D01*
X90197368Y-116885912D02*
X90483082Y-116885912D01*
X90483082Y-116885912D02*
X90625939Y-116814484D01*
X90625939Y-116814484D02*
X90697368Y-116671626D01*
X90697368Y-116671626D02*
X90697368Y-116600198D01*
X90697368Y-116600198D02*
X90625939Y-116457341D01*
X90625939Y-116457341D02*
X90483082Y-116385912D01*
X90483082Y-116385912D02*
X90268797Y-116385912D01*
X90268797Y-116385912D02*
X90125939Y-116314484D01*
X90125939Y-116314484D02*
X90054511Y-116171626D01*
X90054511Y-116171626D02*
X90054511Y-116100198D01*
X90054511Y-116100198D02*
X90125939Y-115957341D01*
X90125939Y-115957341D02*
X90268797Y-115885912D01*
X90268797Y-115885912D02*
X90483082Y-115885912D01*
X90483082Y-115885912D02*
X90625939Y-115957341D01*
X91983083Y-116885912D02*
X91983083Y-116100198D01*
X91983083Y-116100198D02*
X91911654Y-115957341D01*
X91911654Y-115957341D02*
X91768797Y-115885912D01*
X91768797Y-115885912D02*
X91483083Y-115885912D01*
X91483083Y-115885912D02*
X91340225Y-115957341D01*
X91983083Y-116814484D02*
X91840225Y-116885912D01*
X91840225Y-116885912D02*
X91483083Y-116885912D01*
X91483083Y-116885912D02*
X91340225Y-116814484D01*
X91340225Y-116814484D02*
X91268797Y-116671626D01*
X91268797Y-116671626D02*
X91268797Y-116528769D01*
X91268797Y-116528769D02*
X91340225Y-116385912D01*
X91340225Y-116385912D02*
X91483083Y-116314484D01*
X91483083Y-116314484D02*
X91840225Y-116314484D01*
X91840225Y-116314484D02*
X91983083Y-116243055D01*
X92697368Y-116885912D02*
X92697368Y-115885912D01*
X92697368Y-116171626D02*
X92768797Y-116028769D01*
X92768797Y-116028769D02*
X92840226Y-115957341D01*
X92840226Y-115957341D02*
X92983083Y-115885912D01*
X92983083Y-115885912D02*
X93125940Y-115885912D01*
X93840225Y-116885912D02*
X93697368Y-116814484D01*
X93697368Y-116814484D02*
X93625939Y-116743055D01*
X93625939Y-116743055D02*
X93554511Y-116600198D01*
X93554511Y-116600198D02*
X93554511Y-116171626D01*
X93554511Y-116171626D02*
X93625939Y-116028769D01*
X93625939Y-116028769D02*
X93697368Y-115957341D01*
X93697368Y-115957341D02*
X93840225Y-115885912D01*
X93840225Y-115885912D02*
X94054511Y-115885912D01*
X94054511Y-115885912D02*
X94197368Y-115957341D01*
X94197368Y-115957341D02*
X94268797Y-116028769D01*
X94268797Y-116028769D02*
X94340225Y-116171626D01*
X94340225Y-116171626D02*
X94340225Y-116600198D01*
X94340225Y-116600198D02*
X94268797Y-116743055D01*
X94268797Y-116743055D02*
X94197368Y-116814484D01*
X94197368Y-116814484D02*
X94054511Y-116885912D01*
X94054511Y-116885912D02*
X93840225Y-116885912D01*
X96768797Y-116885912D02*
X96768797Y-115385912D01*
X96768797Y-116814484D02*
X96625939Y-116885912D01*
X96625939Y-116885912D02*
X96340225Y-116885912D01*
X96340225Y-116885912D02*
X96197368Y-116814484D01*
X96197368Y-116814484D02*
X96125939Y-116743055D01*
X96125939Y-116743055D02*
X96054511Y-116600198D01*
X96054511Y-116600198D02*
X96054511Y-116171626D01*
X96054511Y-116171626D02*
X96125939Y-116028769D01*
X96125939Y-116028769D02*
X96197368Y-115957341D01*
X96197368Y-115957341D02*
X96340225Y-115885912D01*
X96340225Y-115885912D02*
X96625939Y-115885912D01*
X96625939Y-115885912D02*
X96768797Y-115957341D01*
X98054511Y-116814484D02*
X97911654Y-116885912D01*
X97911654Y-116885912D02*
X97625940Y-116885912D01*
X97625940Y-116885912D02*
X97483082Y-116814484D01*
X97483082Y-116814484D02*
X97411654Y-116671626D01*
X97411654Y-116671626D02*
X97411654Y-116100198D01*
X97411654Y-116100198D02*
X97483082Y-115957341D01*
X97483082Y-115957341D02*
X97625940Y-115885912D01*
X97625940Y-115885912D02*
X97911654Y-115885912D01*
X97911654Y-115885912D02*
X98054511Y-115957341D01*
X98054511Y-115957341D02*
X98125940Y-116100198D01*
X98125940Y-116100198D02*
X98125940Y-116243055D01*
X98125940Y-116243055D02*
X97411654Y-116385912D01*
X100768796Y-116743055D02*
X100697368Y-116814484D01*
X100697368Y-116814484D02*
X100483082Y-116885912D01*
X100483082Y-116885912D02*
X100340225Y-116885912D01*
X100340225Y-116885912D02*
X100125939Y-116814484D01*
X100125939Y-116814484D02*
X99983082Y-116671626D01*
X99983082Y-116671626D02*
X99911653Y-116528769D01*
X99911653Y-116528769D02*
X99840225Y-116243055D01*
X99840225Y-116243055D02*
X99840225Y-116028769D01*
X99840225Y-116028769D02*
X99911653Y-115743055D01*
X99911653Y-115743055D02*
X99983082Y-115600198D01*
X99983082Y-115600198D02*
X100125939Y-115457341D01*
X100125939Y-115457341D02*
X100340225Y-115385912D01*
X100340225Y-115385912D02*
X100483082Y-115385912D01*
X100483082Y-115385912D02*
X100697368Y-115457341D01*
X100697368Y-115457341D02*
X100768796Y-115528769D01*
X101625939Y-116885912D02*
X101483082Y-116814484D01*
X101483082Y-116814484D02*
X101411653Y-116743055D01*
X101411653Y-116743055D02*
X101340225Y-116600198D01*
X101340225Y-116600198D02*
X101340225Y-116171626D01*
X101340225Y-116171626D02*
X101411653Y-116028769D01*
X101411653Y-116028769D02*
X101483082Y-115957341D01*
X101483082Y-115957341D02*
X101625939Y-115885912D01*
X101625939Y-115885912D02*
X101840225Y-115885912D01*
X101840225Y-115885912D02*
X101983082Y-115957341D01*
X101983082Y-115957341D02*
X102054511Y-116028769D01*
X102054511Y-116028769D02*
X102125939Y-116171626D01*
X102125939Y-116171626D02*
X102125939Y-116600198D01*
X102125939Y-116600198D02*
X102054511Y-116743055D01*
X102054511Y-116743055D02*
X101983082Y-116814484D01*
X101983082Y-116814484D02*
X101840225Y-116885912D01*
X101840225Y-116885912D02*
X101625939Y-116885912D01*
X102768796Y-116885912D02*
X102768796Y-115885912D01*
X102768796Y-116171626D02*
X102840225Y-116028769D01*
X102840225Y-116028769D02*
X102911654Y-115957341D01*
X102911654Y-115957341D02*
X103054511Y-115885912D01*
X103054511Y-115885912D02*
X103197368Y-115885912D01*
X104340225Y-116885912D02*
X104340225Y-115385912D01*
X104340225Y-116814484D02*
X104197367Y-116885912D01*
X104197367Y-116885912D02*
X103911653Y-116885912D01*
X103911653Y-116885912D02*
X103768796Y-116814484D01*
X103768796Y-116814484D02*
X103697367Y-116743055D01*
X103697367Y-116743055D02*
X103625939Y-116600198D01*
X103625939Y-116600198D02*
X103625939Y-116171626D01*
X103625939Y-116171626D02*
X103697367Y-116028769D01*
X103697367Y-116028769D02*
X103768796Y-115957341D01*
X103768796Y-115957341D02*
X103911653Y-115885912D01*
X103911653Y-115885912D02*
X104197367Y-115885912D01*
X104197367Y-115885912D02*
X104340225Y-115957341D01*
X105697368Y-116885912D02*
X105697368Y-116100198D01*
X105697368Y-116100198D02*
X105625939Y-115957341D01*
X105625939Y-115957341D02*
X105483082Y-115885912D01*
X105483082Y-115885912D02*
X105197368Y-115885912D01*
X105197368Y-115885912D02*
X105054510Y-115957341D01*
X105697368Y-116814484D02*
X105554510Y-116885912D01*
X105554510Y-116885912D02*
X105197368Y-116885912D01*
X105197368Y-116885912D02*
X105054510Y-116814484D01*
X105054510Y-116814484D02*
X104983082Y-116671626D01*
X104983082Y-116671626D02*
X104983082Y-116528769D01*
X104983082Y-116528769D02*
X105054510Y-116385912D01*
X105054510Y-116385912D02*
X105197368Y-116314484D01*
X105197368Y-116314484D02*
X105554510Y-116314484D01*
X105554510Y-116314484D02*
X105697368Y-116243055D01*
X86554510Y-118515114D02*
X86768796Y-118586542D01*
X86768796Y-118586542D02*
X86840225Y-118657971D01*
X86840225Y-118657971D02*
X86911653Y-118800828D01*
X86911653Y-118800828D02*
X86911653Y-119015114D01*
X86911653Y-119015114D02*
X86840225Y-119157971D01*
X86840225Y-119157971D02*
X86768796Y-119229400D01*
X86768796Y-119229400D02*
X86625939Y-119300828D01*
X86625939Y-119300828D02*
X86054510Y-119300828D01*
X86054510Y-119300828D02*
X86054510Y-117800828D01*
X86054510Y-117800828D02*
X86554510Y-117800828D01*
X86554510Y-117800828D02*
X86697368Y-117872257D01*
X86697368Y-117872257D02*
X86768796Y-117943685D01*
X86768796Y-117943685D02*
X86840225Y-118086542D01*
X86840225Y-118086542D02*
X86840225Y-118229400D01*
X86840225Y-118229400D02*
X86768796Y-118372257D01*
X86768796Y-118372257D02*
X86697368Y-118443685D01*
X86697368Y-118443685D02*
X86554510Y-118515114D01*
X86554510Y-118515114D02*
X86054510Y-118515114D01*
X88197368Y-119300828D02*
X88197368Y-118515114D01*
X88197368Y-118515114D02*
X88125939Y-118372257D01*
X88125939Y-118372257D02*
X87983082Y-118300828D01*
X87983082Y-118300828D02*
X87697368Y-118300828D01*
X87697368Y-118300828D02*
X87554510Y-118372257D01*
X88197368Y-119229400D02*
X88054510Y-119300828D01*
X88054510Y-119300828D02*
X87697368Y-119300828D01*
X87697368Y-119300828D02*
X87554510Y-119229400D01*
X87554510Y-119229400D02*
X87483082Y-119086542D01*
X87483082Y-119086542D02*
X87483082Y-118943685D01*
X87483082Y-118943685D02*
X87554510Y-118800828D01*
X87554510Y-118800828D02*
X87697368Y-118729400D01*
X87697368Y-118729400D02*
X88054510Y-118729400D01*
X88054510Y-118729400D02*
X88197368Y-118657971D01*
X88911653Y-118300828D02*
X88911653Y-119300828D01*
X88911653Y-118443685D02*
X88983082Y-118372257D01*
X88983082Y-118372257D02*
X89125939Y-118300828D01*
X89125939Y-118300828D02*
X89340225Y-118300828D01*
X89340225Y-118300828D02*
X89483082Y-118372257D01*
X89483082Y-118372257D02*
X89554511Y-118515114D01*
X89554511Y-118515114D02*
X89554511Y-119300828D01*
X90911654Y-119229400D02*
X90768796Y-119300828D01*
X90768796Y-119300828D02*
X90483082Y-119300828D01*
X90483082Y-119300828D02*
X90340225Y-119229400D01*
X90340225Y-119229400D02*
X90268796Y-119157971D01*
X90268796Y-119157971D02*
X90197368Y-119015114D01*
X90197368Y-119015114D02*
X90197368Y-118586542D01*
X90197368Y-118586542D02*
X90268796Y-118443685D01*
X90268796Y-118443685D02*
X90340225Y-118372257D01*
X90340225Y-118372257D02*
X90483082Y-118300828D01*
X90483082Y-118300828D02*
X90768796Y-118300828D01*
X90768796Y-118300828D02*
X90911654Y-118372257D01*
X92197368Y-119300828D02*
X92197368Y-118515114D01*
X92197368Y-118515114D02*
X92125939Y-118372257D01*
X92125939Y-118372257D02*
X91983082Y-118300828D01*
X91983082Y-118300828D02*
X91697368Y-118300828D01*
X91697368Y-118300828D02*
X91554510Y-118372257D01*
X92197368Y-119229400D02*
X92054510Y-119300828D01*
X92054510Y-119300828D02*
X91697368Y-119300828D01*
X91697368Y-119300828D02*
X91554510Y-119229400D01*
X91554510Y-119229400D02*
X91483082Y-119086542D01*
X91483082Y-119086542D02*
X91483082Y-118943685D01*
X91483082Y-118943685D02*
X91554510Y-118800828D01*
X91554510Y-118800828D02*
X91697368Y-118729400D01*
X91697368Y-118729400D02*
X92054510Y-118729400D01*
X92054510Y-118729400D02*
X92197368Y-118657971D01*
X93554511Y-119300828D02*
X93554511Y-117800828D01*
X93554511Y-119229400D02*
X93411653Y-119300828D01*
X93411653Y-119300828D02*
X93125939Y-119300828D01*
X93125939Y-119300828D02*
X92983082Y-119229400D01*
X92983082Y-119229400D02*
X92911653Y-119157971D01*
X92911653Y-119157971D02*
X92840225Y-119015114D01*
X92840225Y-119015114D02*
X92840225Y-118586542D01*
X92840225Y-118586542D02*
X92911653Y-118443685D01*
X92911653Y-118443685D02*
X92983082Y-118372257D01*
X92983082Y-118372257D02*
X93125939Y-118300828D01*
X93125939Y-118300828D02*
X93411653Y-118300828D01*
X93411653Y-118300828D02*
X93554511Y-118372257D01*
X94911654Y-119300828D02*
X94911654Y-118515114D01*
X94911654Y-118515114D02*
X94840225Y-118372257D01*
X94840225Y-118372257D02*
X94697368Y-118300828D01*
X94697368Y-118300828D02*
X94411654Y-118300828D01*
X94411654Y-118300828D02*
X94268796Y-118372257D01*
X94911654Y-119229400D02*
X94768796Y-119300828D01*
X94768796Y-119300828D02*
X94411654Y-119300828D01*
X94411654Y-119300828D02*
X94268796Y-119229400D01*
X94268796Y-119229400D02*
X94197368Y-119086542D01*
X94197368Y-119086542D02*
X94197368Y-118943685D01*
X94197368Y-118943685D02*
X94268796Y-118800828D01*
X94268796Y-118800828D02*
X94411654Y-118729400D01*
X94411654Y-118729400D02*
X94768796Y-118729400D01*
X94768796Y-118729400D02*
X94911654Y-118657971D01*
X97625939Y-119300828D02*
X97125939Y-118586542D01*
X96768796Y-119300828D02*
X96768796Y-117800828D01*
X96768796Y-117800828D02*
X97340225Y-117800828D01*
X97340225Y-117800828D02*
X97483082Y-117872257D01*
X97483082Y-117872257D02*
X97554511Y-117943685D01*
X97554511Y-117943685D02*
X97625939Y-118086542D01*
X97625939Y-118086542D02*
X97625939Y-118300828D01*
X97625939Y-118300828D02*
X97554511Y-118443685D01*
X97554511Y-118443685D02*
X97483082Y-118515114D01*
X97483082Y-118515114D02*
X97340225Y-118586542D01*
X97340225Y-118586542D02*
X96768796Y-118586542D01*
X98768796Y-118515114D02*
X98268796Y-118515114D01*
X98268796Y-119300828D02*
X98268796Y-117800828D01*
X98268796Y-117800828D02*
X98983082Y-117800828D01*
X100483082Y-117800828D02*
X100983082Y-119300828D01*
X100983082Y-119300828D02*
X101483082Y-117800828D01*
X102768796Y-119300828D02*
X101911653Y-119300828D01*
X102340224Y-119300828D02*
X102340224Y-117800828D01*
X102340224Y-117800828D02*
X102197367Y-118015114D01*
X102197367Y-118015114D02*
X102054510Y-118157971D01*
X102054510Y-118157971D02*
X101911653Y-118229400D01*
D12*
%TO.P,ADC1,1,E+_1*%
%TO.N,/E+1*%
X178120000Y-81040000D03*
%TO.P,ADC1,2,E-_2*%
%TO.N,/E-1*%
X178120000Y-78500000D03*
%TO.P,ADC1,3,A-_3*%
%TO.N,/A-(s-)1*%
X178120000Y-75960000D03*
%TO.P,ADC1,4,A+_4*%
%TO.N,/A+(S+)1*%
X178120000Y-73420000D03*
%TO.P,ADC1,5,B-_5*%
%TO.N,unconnected-(ADC1-B--Pad5)*%
X178120000Y-70880000D03*
%TO.P,ADC1,6,B+_6*%
%TO.N,unconnected-(ADC1-B+-Pad6)*%
X178120000Y-68340000D03*
%TO.P,ADC1,7,GND_7*%
%TO.N,GND*%
X157990000Y-78400000D03*
%TO.P,ADC1,8,DT_8*%
%TO.N,/DT1*%
X157990000Y-75860000D03*
%TO.P,ADC1,9,SCK_9*%
%TO.N,/SCK1*%
X157990000Y-73320000D03*
%TO.P,ADC1,10,VCC_10*%
%TO.N,+3.3V*%
X157990000Y-70780000D03*
%TD*%
%TO.P,U2,1,SO_1*%
%TO.N,/SO*%
X92620000Y-70540000D03*
%TO.P,U2,2,~{CS}_2*%
%TO.N,/CS2*%
X92620000Y-73080000D03*
%TO.P,U2,3,SCK_3*%
%TO.N,/SCK*%
X92620000Y-75620000D03*
%TO.P,U2,4,V_{CC}_4*%
%TO.N,+3.3V*%
X92620000Y-78160000D03*
%TO.P,U2,5,GND_5*%
%TO.N,GND*%
X92620000Y-80700000D03*
%TD*%
%TO.P,ADC2,1,E+_1*%
%TO.N,/E+2*%
X181200000Y-110980000D03*
%TO.P,ADC2,2,E-_2*%
%TO.N,/E-2*%
X181200000Y-108440000D03*
%TO.P,ADC2,3,A-_3*%
%TO.N,/A-(s-)2*%
X181200000Y-105900000D03*
%TO.P,ADC2,4,A+_4*%
%TO.N,/A+(S+)2*%
X181200000Y-103360000D03*
%TO.P,ADC2,5,B-_5*%
%TO.N,unconnected-(ADC2-B--Pad5)*%
X181200000Y-100820000D03*
%TO.P,ADC2,6,B+_6*%
%TO.N,unconnected-(ADC2-B+-Pad6)*%
X181200000Y-98280000D03*
%TO.P,ADC2,7,GND_7*%
%TO.N,GND*%
X156250000Y-108250000D03*
%TO.P,ADC2,8,DT_8*%
%TO.N,/DT2*%
X156250000Y-105710000D03*
%TO.P,ADC2,9,SCK_9*%
%TO.N,/SCK2*%
X156250000Y-103170000D03*
%TO.P,ADC2,10,VCC_10*%
%TO.N,+3.3V*%
X156250000Y-100630000D03*
%TD*%
D13*
%TO.P,CN1,1*%
%TO.N,/E+1*%
X196370000Y-81040000D03*
D14*
%TO.P,CN1,2*%
%TO.N,/E-1*%
X196370000Y-78500000D03*
%TO.P,CN1,3*%
%TO.N,/A-(s-)1*%
X196370000Y-75960000D03*
%TO.P,CN1,4*%
%TO.N,/A+(S+)1*%
X196370000Y-73420000D03*
%TD*%
D13*
%TO.P,CN2,1*%
%TO.N,/E+2*%
X197370000Y-111120000D03*
D14*
%TO.P,CN2,2*%
%TO.N,/E-2*%
X197370000Y-108580000D03*
%TO.P,CN2,3*%
%TO.N,/A-(s-)2*%
X197370000Y-106040000D03*
%TO.P,CN2,4*%
%TO.N,/A+(S+)2*%
X197370000Y-103500000D03*
%TD*%
D12*
%TO.P,U1,1,SO_1*%
%TO.N,/SO*%
X92620000Y-93380000D03*
%TO.P,U1,2,~{CS}_2*%
%TO.N,/CS1*%
X92620000Y-95920000D03*
%TO.P,U1,3,SCK_3*%
%TO.N,/SCK*%
X92620000Y-98460000D03*
%TO.P,U1,4,V_{CC}_4*%
%TO.N,+3.3V*%
X92620000Y-101000000D03*
%TO.P,U1,5,GND_5*%
%TO.N,GND*%
X92620000Y-103540000D03*
%TD*%
%TO.P,MCU1,1,EN_1*%
%TO.N,unconnected-(MCU1-EN-Pad1)*%
X115390000Y-72050000D03*
%TO.P,MCU1,2,VP_2*%
%TO.N,unconnected-(MCU1-VP-Pad2)*%
X115390000Y-74590000D03*
%TO.P,MCU1,3,VN_3*%
%TO.N,unconnected-(MCU1-VN-Pad3)*%
X115390000Y-77130000D03*
%TO.P,MCU1,4,D34_4*%
%TO.N,unconnected-(MCU1-D34-Pad4)*%
X115390000Y-79670000D03*
%TO.P,MCU1,5,D35_5*%
%TO.N,unconnected-(MCU1-D35-Pad5)*%
X115390000Y-82210000D03*
%TO.P,MCU1,6,D32_6*%
%TO.N,unconnected-(MCU1-D32-Pad6)*%
X115390000Y-84750000D03*
%TO.P,MCU1,7,D33_7*%
%TO.N,unconnected-(MCU1-D33-Pad7)*%
X115390000Y-87290000D03*
%TO.P,MCU1,8,D25_8*%
%TO.N,/DT2*%
X115390000Y-89830000D03*
%TO.P,MCU1,9,D26_9*%
%TO.N,/SCK2*%
X115390000Y-92370000D03*
%TO.P,MCU1,10,D27_10*%
%TO.N,unconnected-(MCU1-D27-Pad10)*%
X115390000Y-94910000D03*
%TO.P,MCU1,11,D14_11*%
%TO.N,unconnected-(MCU1-D14-Pad11)*%
X115390000Y-97450000D03*
%TO.P,MCU1,12,D12_12*%
%TO.N,unconnected-(MCU1-D12-Pad12)*%
X115390000Y-99990000D03*
%TO.P,MCU1,13,D13_13*%
%TO.N,unconnected-(MCU1-D13-Pad13)*%
X115390000Y-102530000D03*
%TO.P,MCU1,14,GND_14*%
%TO.N,GND*%
X115390000Y-105070000D03*
%TO.P,MCU1,15,VIN_15*%
%TO.N,VCC*%
X115390000Y-107610000D03*
%TO.P,MCU1,16,D23_16*%
%TO.N,/CS2*%
X140820000Y-72050000D03*
%TO.P,MCU1,17,D22_17*%
%TO.N,/SCK1*%
X140820000Y-74590000D03*
%TO.P,MCU1,18,TX0_18*%
%TO.N,unconnected-(MCU1-TX0-Pad18)*%
X140820000Y-77130000D03*
%TO.P,MCU1,19,RX0_19*%
%TO.N,unconnected-(MCU1-RX0-Pad19)*%
X140820000Y-79670000D03*
%TO.P,MCU1,20,D21_20*%
%TO.N,/DT1*%
X140820000Y-82210000D03*
%TO.P,MCU1,21,D19_21*%
%TO.N,/SO*%
X140820000Y-84750000D03*
%TO.P,MCU1,22,D18_22*%
%TO.N,/SCK*%
X140820000Y-87290000D03*
%TO.P,MCU1,23,D5_23*%
%TO.N,/CS1*%
X140820000Y-89830000D03*
%TO.P,MCU1,24,TX2_24*%
%TO.N,unconnected-(MCU1-TX2-Pad24)*%
X140820000Y-92370000D03*
%TO.P,MCU1,25,RX2_25*%
%TO.N,unconnected-(MCU1-RX2-Pad25)*%
X140820000Y-94910000D03*
%TO.P,MCU1,26,D4_26*%
%TO.N,unconnected-(MCU1-D4-Pad26)*%
X140820000Y-97450000D03*
%TO.P,MCU1,27,D2_27*%
%TO.N,unconnected-(MCU1-D2-Pad27)*%
X140820000Y-99990000D03*
%TO.P,MCU1,28,D15_28*%
%TO.N,unconnected-(MCU1-D15-Pad28)*%
X140820000Y-102530000D03*
%TO.P,MCU1,29,GND_29*%
%TO.N,GND*%
X140820000Y-105070000D03*
%TO.P,MCU1,30,3V3_30*%
%TO.N,+3.3V*%
X140820000Y-107610000D03*
%TD*%
D15*
%TO.N,+3.3V*%
X129000000Y-114500000D03*
%TO.N,/CS2*%
X127000000Y-68000000D03*
X133500000Y-68000000D03*
%TO.N,/SCK*%
X89500000Y-88000000D03*
X89500000Y-94000000D03*
%TO.N,/CS1*%
X91000000Y-90000000D03*
X91000000Y-84000000D03*
%TD*%
%TO.N,/E+1*%
D16*
X178120000Y-81040000D02*
X196370000Y-81040000D01*
%TO.N,/E-1*%
X178120000Y-78500000D02*
X196370000Y-78500000D01*
%TO.N,/A-(s-)1*%
D17*
X178120000Y-75960000D02*
X196370000Y-75960000D01*
%TO.N,/A+(S+)1*%
X178120000Y-73420000D02*
X196370000Y-73420000D01*
%TO.N,/DT1*%
X157990000Y-75860000D02*
X154640000Y-75860000D01*
X148290000Y-82210000D02*
X140820000Y-82210000D01*
X154640000Y-75860000D02*
X148290000Y-82210000D01*
%TO.N,/SCK1*%
X148680000Y-73320000D02*
X147410000Y-74590000D01*
X147410000Y-74590000D02*
X140820000Y-74590000D01*
X157990000Y-73320000D02*
X148680000Y-73320000D01*
%TO.N,+3.3V*%
X156250000Y-95750000D02*
X163750000Y-88250000D01*
X163750000Y-71000000D02*
X163530000Y-70780000D01*
X156250000Y-100630000D02*
X156250000Y-95750000D01*
X163530000Y-70780000D02*
X157990000Y-70780000D01*
X98000000Y-101000000D02*
X92620000Y-101000000D01*
X163750000Y-88250000D02*
X163750000Y-71000000D01*
X92620000Y-78160000D02*
X97160000Y-78160000D01*
X140820000Y-107610000D02*
X143140000Y-107610000D01*
X143140000Y-107610000D02*
X150120000Y-100630000D01*
X98500000Y-104500000D02*
X98500000Y-101500000D01*
X98500000Y-101500000D02*
X98000000Y-101000000D01*
X108500000Y-114500000D02*
X98500000Y-104500000D01*
X98000000Y-79000000D02*
X98000000Y-101000000D01*
X150120000Y-100630000D02*
X156250000Y-100630000D01*
X129000000Y-114500000D02*
X108500000Y-114500000D01*
X97160000Y-78160000D02*
X98000000Y-79000000D01*
%TO.N,/SO*%
X87500000Y-71500000D02*
X87500000Y-88260000D01*
X87500000Y-88260000D02*
X92620000Y-93380000D01*
X134500000Y-78430000D02*
X140820000Y-84750000D01*
X134500000Y-73000000D02*
X134500000Y-78430000D01*
X92620000Y-70540000D02*
X88460000Y-70540000D01*
X128000000Y-66500000D02*
X134500000Y-73000000D01*
X96660000Y-66500000D02*
X128000000Y-66500000D01*
X88460000Y-70540000D02*
X87500000Y-71500000D01*
X92620000Y-70540000D02*
X96660000Y-66500000D01*
%TO.N,/CS2*%
X92620000Y-73080000D02*
X97700000Y-68000000D01*
X137500000Y-68000000D02*
X140820000Y-71320000D01*
X133500000Y-68000000D02*
X137500000Y-68000000D01*
X97700000Y-68000000D02*
X127000000Y-68000000D01*
X140820000Y-71320000D02*
X140820000Y-72050000D01*
%TO.N,/SCK*%
X98240000Y-70000000D02*
X123530000Y-70000000D01*
X123530000Y-70000000D02*
X140820000Y-87290000D01*
X89500000Y-78740000D02*
X92620000Y-75620000D01*
X89500000Y-88000000D02*
X89500000Y-78740000D01*
X92620000Y-75620000D02*
X98240000Y-70000000D01*
X89500000Y-95340000D02*
X92620000Y-98460000D01*
X89500000Y-94000000D02*
X89500000Y-95340000D01*
%TO.N,/E+2*%
D16*
X197230000Y-110980000D02*
X197370000Y-111120000D01*
X181200000Y-110980000D02*
X197230000Y-110980000D01*
%TO.N,/E-2*%
X181200000Y-108440000D02*
X197230000Y-108440000D01*
X197230000Y-108440000D02*
X197370000Y-108580000D01*
%TO.N,/A-(s-)2*%
D17*
X181200000Y-105900000D02*
X197230000Y-105900000D01*
X197230000Y-105900000D02*
X197370000Y-106040000D01*
%TO.N,/A+(S+)2*%
X181200000Y-103360000D02*
X197230000Y-103360000D01*
X197230000Y-103360000D02*
X197370000Y-103500000D01*
%TO.N,/DT2*%
X136500000Y-110940000D02*
X136500000Y-111000000D01*
X152790000Y-105710000D02*
X156250000Y-105710000D01*
X136500000Y-111000000D02*
X147500000Y-111000000D01*
X147500000Y-111000000D02*
X152790000Y-105710000D01*
X115390000Y-89830000D02*
X136500000Y-110940000D01*
%TO.N,/SCK2*%
X162500000Y-105000000D02*
X160670000Y-103170000D01*
X135520000Y-112500000D02*
X157500000Y-112500000D01*
X157500000Y-112500000D02*
X162500000Y-107500000D01*
X115390000Y-92370000D02*
X135520000Y-112500000D01*
X162500000Y-107500000D02*
X162500000Y-105000000D01*
X160670000Y-103170000D02*
X156250000Y-103170000D01*
%TO.N,/CS1*%
X91000000Y-90000000D02*
X91000000Y-84000000D01*
%TD*%
M02*
