%TF.GenerationSoftware,KiCad,Pcbnew,10.0.5*%
%TF.CreationDate,2026-09-09T15:21:58-03:00*%
%TF.ProjectId,LoadCellRF,4c6f6164-4365-46c6-9c52-462e6b696361,rev?*%
%TF.SameCoordinates,Original*%
%TF.FileFunction,Soldermask,Bot*%
%TF.FilePolarity,Negative*%
%FSLAX46Y46*%
G04 Gerber Fmt 4.6, Leading zero omitted, Abs format (unit mm)*
G04 Created by KiCad (PCBNEW 10.0.5) date 2026-09-09 15:21:58*
%MOMM*%
%LPD*%
G01*
G04 APERTURE LIST*
G04 Aperture macros list*
%AMRoundRect*
0 Rectangle with rounded corners*
0 $1 Rounding radius*
0 $2 $3 $4 $5 $6 $7 $8 $9 X,Y pos of 4 corners*
0 Add a 4 corners polygon primitive as box body*
4,1,4,$2,$3,$4,$5,$6,$7,$8,$9,$2,$3,0*
0 Add four circle primitives for the rounded corners*
1,1,$1+$1,$2,$3*
1,1,$1+$1,$4,$5*
1,1,$1+$1,$6,$7*
1,1,$1+$1,$8,$9*
0 Add four rect primitives between the rounded corners*
20,1,$1+$1,$2,$3,$4,$5,0*
20,1,$1+$1,$4,$5,$6,$7,0*
20,1,$1+$1,$6,$7,$8,$9,0*
20,1,$1+$1,$8,$9,$2,$3,0*%
G04 Aperture macros list end*
%ADD10C,1.750000*%
%ADD11RoundRect,0.250000X0.725000X-0.600000X0.725000X0.600000X-0.725000X0.600000X-0.725000X-0.600000X0*%
%ADD12O,1.950000X1.700000*%
G04 APERTURE END LIST*
D10*
%TO.C,ADC1*%
X178120000Y-81040000D03*
X178120000Y-78500000D03*
X178120000Y-75960000D03*
X178120000Y-73420000D03*
X178120000Y-70880000D03*
X178120000Y-68340000D03*
X157990000Y-78400000D03*
X157990000Y-75860000D03*
X157990000Y-73320000D03*
X157990000Y-70780000D03*
%TD*%
%TO.C,U2*%
X92620000Y-70540000D03*
X92620000Y-73080000D03*
X92620000Y-75620000D03*
X92620000Y-78160000D03*
X92620000Y-80700000D03*
%TD*%
%TO.C,ADC2*%
X181200000Y-110980000D03*
X181200000Y-108440000D03*
X181200000Y-105900000D03*
X181200000Y-103360000D03*
X181200000Y-100820000D03*
X181200000Y-98280000D03*
X156250000Y-108250000D03*
X156250000Y-105710000D03*
X156250000Y-103170000D03*
X156250000Y-100630000D03*
%TD*%
D11*
%TO.C,CN1*%
X196370000Y-81040000D03*
D12*
X196370000Y-78500000D03*
X196370000Y-75960000D03*
X196370000Y-73420000D03*
%TD*%
D11*
%TO.C,CN2*%
X197370000Y-111120000D03*
D12*
X197370000Y-108580000D03*
X197370000Y-106040000D03*
X197370000Y-103500000D03*
%TD*%
D10*
%TO.C,U1*%
X92620000Y-93380000D03*
X92620000Y-95920000D03*
X92620000Y-98460000D03*
X92620000Y-101000000D03*
X92620000Y-103540000D03*
%TD*%
%TO.C,MCU1*%
X115390000Y-72050000D03*
X115390000Y-74590000D03*
X115390000Y-77130000D03*
X115390000Y-79670000D03*
X115390000Y-82210000D03*
X115390000Y-84750000D03*
X115390000Y-87290000D03*
X115390000Y-89830000D03*
X115390000Y-92370000D03*
X115390000Y-94910000D03*
X115390000Y-97450000D03*
X115390000Y-99990000D03*
X115390000Y-102530000D03*
X115390000Y-105070000D03*
X115390000Y-107610000D03*
X140820000Y-72050000D03*
X140820000Y-74590000D03*
X140820000Y-77130000D03*
X140820000Y-79670000D03*
X140820000Y-82210000D03*
X140820000Y-84750000D03*
X140820000Y-87290000D03*
X140820000Y-89830000D03*
X140820000Y-92370000D03*
X140820000Y-94910000D03*
X140820000Y-97450000D03*
X140820000Y-99990000D03*
X140820000Y-102530000D03*
X140820000Y-105070000D03*
X140820000Y-107610000D03*
%TD*%
M02*
