%TF.GenerationSoftware,KiCad,Pcbnew,10.0.5*%
%TF.CreationDate,2026-09-09T15:21:58-03:00*%
%TF.ProjectId,LoadCellRF,4c6f6164-4365-46c6-9c52-462e6b696361,rev?*%
%TF.SameCoordinates,Original*%
%TF.FileFunction,Copper,L2,Bot*%
%TF.FilePolarity,Positive*%
%FSLAX46Y46*%
G04 Gerber Fmt 4.6, Leading zero omitted, Abs format (unit mm)*
G04 Created by KiCad (PCBNEW 10.0.5) date 2026-09-09 15:21:58*
%MOMM*%
%LPD*%
G01*
G04 APERTURE LIST*
G04 Aperture macros list*
%AMRoundRect*
0 Rectangle with rounded corners*
0 $1 Rounding radius*
0 $2 $3 $4 $5 $6 $7 $8 $9 X,Y pos of 4 corners*
0 Add a 4 corners polygon primitive as box body*
4,1,4,$2,$3,$4,$5,$6,$7,$8,$9,$2,$3,0*
0 Add four circle primitives for the rounded corners*
1,1,$1+$1,$2,$3*
1,1,$1+$1,$4,$5*
1,1,$1+$1,$6,$7*
1,1,$1+$1,$8,$9*
0 Add four rect primitives between the rounded corners*
20,1,$1+$1,$2,$3,$4,$5,0*
20,1,$1+$1,$4,$5,$6,$7,0*
20,1,$1+$1,$6,$7,$8,$9,0*
20,1,$1+$1,$8,$9,$2,$3,0*%
G04 Aperture macros list end*
%TA.AperFunction,ComponentPad*%
%ADD10C,1.750000*%
%TD*%
%TA.AperFunction,ComponentPad*%
%ADD11RoundRect,0.250000X0.725000X-0.600000X0.725000X0.600000X-0.725000X0.600000X-0.725000X-0.600000X0*%
%TD*%
%TA.AperFunction,ComponentPad*%
%ADD12O,1.950000X1.700000*%
%TD*%
%TA.AperFunction,ViaPad*%
%ADD13C,0.600000*%
%TD*%
%TA.AperFunction,Conductor*%
%ADD14C,0.400000*%
%TD*%
G04 APERTURE END LIST*
D10*
%TO.P,ADC1,1,E+_1*%
%TO.N,/E+1*%
X178120000Y-81040000D03*
%TO.P,ADC1,2,E-_2*%
%TO.N,/E-1*%
X178120000Y-78500000D03*
%TO.P,ADC1,3,A-_3*%
%TO.N,/A-(s-)1*%
X178120000Y-75960000D03*
%TO.P,ADC1,4,A+_4*%
%TO.N,/A+(S+)1*%
X178120000Y-73420000D03*
%TO.P,ADC1,5,B-_5*%
%TO.N,unconnected-(ADC1-B--Pad5)*%
X178120000Y-70880000D03*
%TO.P,ADC1,6,B+_6*%
%TO.N,unconnected-(ADC1-B+-Pad6)*%
X178120000Y-68340000D03*
%TO.P,ADC1,7,GND_7*%
%TO.N,GND*%
X157990000Y-78400000D03*
%TO.P,ADC1,8,DT_8*%
%TO.N,/DT1*%
X157990000Y-75860000D03*
%TO.P,ADC1,9,SCK_9*%
%TO.N,/SCK1*%
X157990000Y-73320000D03*
%TO.P,ADC1,10,VCC_10*%
%TO.N,+3.3V*%
X157990000Y-70780000D03*
%TD*%
%TO.P,U2,1,SO_1*%
%TO.N,/SO*%
X92620000Y-70540000D03*
%TO.P,U2,2,~{CS}_2*%
%TO.N,/CS2*%
X92620000Y-73080000D03*
%TO.P,U2,3,SCK_3*%
%TO.N,/SCK*%
X92620000Y-75620000D03*
%TO.P,U2,4,V_{CC}_4*%
%TO.N,+3.3V*%
X92620000Y-78160000D03*
%TO.P,U2,5,GND_5*%
%TO.N,GND*%
X92620000Y-80700000D03*
%TD*%
%TO.P,ADC2,1,E+_1*%
%TO.N,/E+2*%
X181200000Y-110980000D03*
%TO.P,ADC2,2,E-_2*%
%TO.N,/E-2*%
X181200000Y-108440000D03*
%TO.P,ADC2,3,A-_3*%
%TO.N,/A-(s-)2*%
X181200000Y-105900000D03*
%TO.P,ADC2,4,A+_4*%
%TO.N,/A+(S+)2*%
X181200000Y-103360000D03*
%TO.P,ADC2,5,B-_5*%
%TO.N,unconnected-(ADC2-B--Pad5)*%
X181200000Y-100820000D03*
%TO.P,ADC2,6,B+_6*%
%TO.N,unconnected-(ADC2-B+-Pad6)*%
X181200000Y-98280000D03*
%TO.P,ADC2,7,GND_7*%
%TO.N,GND*%
X156250000Y-108250000D03*
%TO.P,ADC2,8,DT_8*%
%TO.N,/DT2*%
X156250000Y-105710000D03*
%TO.P,ADC2,9,SCK_9*%
%TO.N,/SCK2*%
X156250000Y-103170000D03*
%TO.P,ADC2,10,VCC_10*%
%TO.N,+3.3V*%
X156250000Y-100630000D03*
%TD*%
D11*
%TO.P,CN1,1*%
%TO.N,/E+1*%
X196370000Y-81040000D03*
D12*
%TO.P,CN1,2*%
%TO.N,/E-1*%
X196370000Y-78500000D03*
%TO.P,CN1,3*%
%TO.N,/A-(s-)1*%
X196370000Y-75960000D03*
%TO.P,CN1,4*%
%TO.N,/A+(S+)1*%
X196370000Y-73420000D03*
%TD*%
D11*
%TO.P,CN2,1*%
%TO.N,/E+2*%
X197370000Y-111120000D03*
D12*
%TO.P,CN2,2*%
%TO.N,/E-2*%
X197370000Y-108580000D03*
%TO.P,CN2,3*%
%TO.N,/A-(s-)2*%
X197370000Y-106040000D03*
%TO.P,CN2,4*%
%TO.N,/A+(S+)2*%
X197370000Y-103500000D03*
%TD*%
D10*
%TO.P,U1,1,SO_1*%
%TO.N,/SO*%
X92620000Y-93380000D03*
%TO.P,U1,2,~{CS}_2*%
%TO.N,/CS1*%
X92620000Y-95920000D03*
%TO.P,U1,3,SCK_3*%
%TO.N,/SCK*%
X92620000Y-98460000D03*
%TO.P,U1,4,V_{CC}_4*%
%TO.N,+3.3V*%
X92620000Y-101000000D03*
%TO.P,U1,5,GND_5*%
%TO.N,GND*%
X92620000Y-103540000D03*
%TD*%
%TO.P,MCU1,1,EN_1*%
%TO.N,unconnected-(MCU1-EN-Pad1)*%
X115390000Y-72050000D03*
%TO.P,MCU1,2,VP_2*%
%TO.N,unconnected-(MCU1-VP-Pad2)*%
X115390000Y-74590000D03*
%TO.P,MCU1,3,VN_3*%
%TO.N,unconnected-(MCU1-VN-Pad3)*%
X115390000Y-77130000D03*
%TO.P,MCU1,4,D34_4*%
%TO.N,unconnected-(MCU1-D34-Pad4)*%
X115390000Y-79670000D03*
%TO.P,MCU1,5,D35_5*%
%TO.N,unconnected-(MCU1-D35-Pad5)*%
X115390000Y-82210000D03*
%TO.P,MCU1,6,D32_6*%
%TO.N,unconnected-(MCU1-D32-Pad6)*%
X115390000Y-84750000D03*
%TO.P,MCU1,7,D33_7*%
%TO.N,unconnected-(MCU1-D33-Pad7)*%
X115390000Y-87290000D03*
%TO.P,MCU1,8,D25_8*%
%TO.N,/DT2*%
X115390000Y-89830000D03*
%TO.P,MCU1,9,D26_9*%
%TO.N,/SCK2*%
X115390000Y-92370000D03*
%TO.P,MCU1,10,D27_10*%
%TO.N,unconnected-(MCU1-D27-Pad10)*%
X115390000Y-94910000D03*
%TO.P,MCU1,11,D14_11*%
%TO.N,unconnected-(MCU1-D14-Pad11)*%
X115390000Y-97450000D03*
%TO.P,MCU1,12,D12_12*%
%TO.N,unconnected-(MCU1-D12-Pad12)*%
X115390000Y-99990000D03*
%TO.P,MCU1,13,D13_13*%
%TO.N,unconnected-(MCU1-D13-Pad13)*%
X115390000Y-102530000D03*
%TO.P,MCU1,14,GND_14*%
%TO.N,GND*%
X115390000Y-105070000D03*
%TO.P,MCU1,15,VIN_15*%
%TO.N,VCC*%
X115390000Y-107610000D03*
%TO.P,MCU1,16,D23_16*%
%TO.N,/CS2*%
X140820000Y-72050000D03*
%TO.P,MCU1,17,D22_17*%
%TO.N,/SCK1*%
X140820000Y-74590000D03*
%TO.P,MCU1,18,TX0_18*%
%TO.N,unconnected-(MCU1-TX0-Pad18)*%
X140820000Y-77130000D03*
%TO.P,MCU1,19,RX0_19*%
%TO.N,unconnected-(MCU1-RX0-Pad19)*%
X140820000Y-79670000D03*
%TO.P,MCU1,20,D21_20*%
%TO.N,/DT1*%
X140820000Y-82210000D03*
%TO.P,MCU1,21,D19_21*%
%TO.N,/SO*%
X140820000Y-84750000D03*
%TO.P,MCU1,22,D18_22*%
%TO.N,/SCK*%
X140820000Y-87290000D03*
%TO.P,MCU1,23,D5_23*%
%TO.N,/CS1*%
X140820000Y-89830000D03*
%TO.P,MCU1,24,TX2_24*%
%TO.N,unconnected-(MCU1-TX2-Pad24)*%
X140820000Y-92370000D03*
%TO.P,MCU1,25,RX2_25*%
%TO.N,unconnected-(MCU1-RX2-Pad25)*%
X140820000Y-94910000D03*
%TO.P,MCU1,26,D4_26*%
%TO.N,unconnected-(MCU1-D4-Pad26)*%
X140820000Y-97450000D03*
%TO.P,MCU1,27,D2_27*%
%TO.N,unconnected-(MCU1-D2-Pad27)*%
X140820000Y-99990000D03*
%TO.P,MCU1,28,D15_28*%
%TO.N,unconnected-(MCU1-D15-Pad28)*%
X140820000Y-102530000D03*
%TO.P,MCU1,29,GND_29*%
%TO.N,GND*%
X140820000Y-105070000D03*
%TO.P,MCU1,30,3V3_30*%
%TO.N,+3.3V*%
X140820000Y-107610000D03*
%TD*%
D13*
%TO.N,+3.3V*%
X129000000Y-114500000D03*
%TO.N,/CS2*%
X127000000Y-68000000D03*
X133500000Y-68000000D03*
%TO.N,/SCK*%
X89500000Y-88000000D03*
X89500000Y-94000000D03*
%TO.N,/CS1*%
X91000000Y-90000000D03*
X91000000Y-84000000D03*
%TD*%
%TO.N,+3.3V*%
D14*
X140820000Y-107610000D02*
X135890000Y-107610000D01*
X135890000Y-107610000D02*
X129000000Y-114500000D01*
%TO.N,/CS2*%
X127000000Y-68000000D02*
X133500000Y-68000000D01*
%TO.N,/SCK*%
X89500000Y-88000000D02*
X89500000Y-94000000D01*
%TO.N,/CS1*%
X117500000Y-69000000D02*
X138330000Y-89830000D01*
X89000000Y-82000000D02*
X89000000Y-77000000D01*
X89000000Y-77000000D02*
X89000000Y-73000000D01*
X138330000Y-89830000D02*
X140820000Y-89830000D01*
X89000000Y-71000000D02*
X91500000Y-68500000D01*
X89000000Y-73000000D02*
X89000000Y-71000000D01*
X97500000Y-68500000D02*
X98000000Y-69000000D01*
X91000000Y-94300000D02*
X91000000Y-90000000D01*
X91000000Y-84000000D02*
X89000000Y-82000000D01*
X91500000Y-68500000D02*
X97500000Y-68500000D01*
X92620000Y-95920000D02*
X91000000Y-94300000D01*
X98000000Y-69000000D02*
X117500000Y-69000000D01*
%TD*%
%TA.AperFunction,Conductor*%
%TO.N,GND*%
G36*
X202442539Y-63520185D02*
G01*
X202488294Y-63572989D01*
X202499500Y-63624500D01*
X202499500Y-120375500D01*
X202479815Y-120442539D01*
X202427011Y-120488294D01*
X202375500Y-120499500D01*
X84624500Y-120499500D01*
X84557461Y-120479815D01*
X84511706Y-120427011D01*
X84500500Y-120375500D01*
X84500500Y-87921153D01*
X88699500Y-87921153D01*
X88699500Y-88078846D01*
X88730261Y-88233489D01*
X88730264Y-88233501D01*
X88790061Y-88377864D01*
X88799500Y-88425316D01*
X88799500Y-93574684D01*
X88790061Y-93622136D01*
X88730264Y-93766498D01*
X88730261Y-93766510D01*
X88699500Y-93921153D01*
X88699500Y-94078846D01*
X88730261Y-94233489D01*
X88730264Y-94233501D01*
X88790602Y-94379172D01*
X88790609Y-94379185D01*
X88878210Y-94510288D01*
X88878213Y-94510292D01*
X88989707Y-94621786D01*
X88989711Y-94621789D01*
X89120814Y-94709390D01*
X89120827Y-94709397D01*
X89219621Y-94750318D01*
X89266503Y-94769737D01*
X89421153Y-94800499D01*
X89421156Y-94800500D01*
X89421158Y-94800500D01*
X89578844Y-94800500D01*
X89578845Y-94800499D01*
X89733497Y-94769737D01*
X89879179Y-94709394D01*
X90010289Y-94621789D01*
X90121789Y-94510289D01*
X90121791Y-94510285D01*
X90125653Y-94505581D01*
X90126962Y-94506655D01*
X90174355Y-94467042D01*
X90243680Y-94458330D01*
X90306709Y-94488481D01*
X90338413Y-94533282D01*
X90375072Y-94621786D01*
X90379225Y-94631811D01*
X90417555Y-94689177D01*
X90455887Y-94746545D01*
X90455888Y-94746546D01*
X91237642Y-95528299D01*
X91271127Y-95589622D01*
X91272434Y-95635378D01*
X91244500Y-95811746D01*
X91244500Y-96028253D01*
X91278370Y-96242098D01*
X91345272Y-96448006D01*
X91345273Y-96448009D01*
X91443567Y-96640919D01*
X91570828Y-96816078D01*
X91723922Y-96969172D01*
X91878190Y-97081255D01*
X91889789Y-97089682D01*
X91932454Y-97145012D01*
X91938433Y-97214626D01*
X91905827Y-97276421D01*
X91889788Y-97290318D01*
X91723922Y-97410828D01*
X91723920Y-97410830D01*
X91723919Y-97410830D01*
X91570830Y-97563919D01*
X91570830Y-97563920D01*
X91570828Y-97563922D01*
X91516174Y-97639145D01*
X91443567Y-97739080D01*
X91345273Y-97931990D01*
X91345272Y-97931993D01*
X91278370Y-98137901D01*
X91245398Y-98346078D01*
X91244500Y-98351746D01*
X91244500Y-98568254D01*
X91252646Y-98619682D01*
X91278370Y-98782098D01*
X91345272Y-98988006D01*
X91345273Y-98988009D01*
X91441100Y-99176078D01*
X91443567Y-99180919D01*
X91570828Y-99356078D01*
X91723922Y-99509172D01*
X91842037Y-99594988D01*
X91889789Y-99629682D01*
X91932454Y-99685012D01*
X91938433Y-99754626D01*
X91905827Y-99816421D01*
X91889788Y-99830318D01*
X91723922Y-99950828D01*
X91723920Y-99950830D01*
X91723919Y-99950830D01*
X91570830Y-100103919D01*
X91570830Y-100103920D01*
X91570828Y-100103922D01*
X91516174Y-100179145D01*
X91443567Y-100279080D01*
X91345273Y-100471990D01*
X91345272Y-100471993D01*
X91278370Y-100677901D01*
X91268811Y-100738253D01*
X91244500Y-100891746D01*
X91244500Y-101108254D01*
X91252380Y-101158006D01*
X91278370Y-101322098D01*
X91345272Y-101528006D01*
X91345273Y-101528009D01*
X91422294Y-101679169D01*
X91443567Y-101720919D01*
X91570828Y-101896078D01*
X91723922Y-102049172D01*
X91847682Y-102139089D01*
X91890347Y-102194419D01*
X91896326Y-102264033D01*
X91863720Y-102325828D01*
X91847681Y-102339725D01*
X91825065Y-102356156D01*
X91825065Y-102356158D01*
X92457236Y-102988328D01*
X92398058Y-103004185D01*
X92266942Y-103079885D01*
X92159885Y-103186942D01*
X92084185Y-103318058D01*
X92068328Y-103377235D01*
X91436158Y-102745065D01*
X91436156Y-102745065D01*
X91401232Y-102793134D01*
X91401230Y-102793138D01*
X91299400Y-102992989D01*
X91299399Y-102992992D01*
X91230089Y-103206310D01*
X91195000Y-103427850D01*
X91195000Y-103652149D01*
X91230089Y-103873689D01*
X91299399Y-104087007D01*
X91299400Y-104087010D01*
X91401231Y-104286863D01*
X91436157Y-104334933D01*
X91436158Y-104334934D01*
X92068328Y-103702763D01*
X92084185Y-103761942D01*
X92159885Y-103893058D01*
X92266942Y-104000115D01*
X92398058Y-104075815D01*
X92457235Y-104091671D01*
X91825064Y-104723841D01*
X91873137Y-104758769D01*
X92072989Y-104860599D01*
X92072992Y-104860600D01*
X92286310Y-104929910D01*
X92507851Y-104965000D01*
X92732149Y-104965000D01*
X92777290Y-104957850D01*
X113965000Y-104957850D01*
X113965000Y-105182149D01*
X114000089Y-105403689D01*
X114069399Y-105617007D01*
X114069400Y-105617010D01*
X114171231Y-105816863D01*
X114206157Y-105864933D01*
X114206158Y-105864934D01*
X114838328Y-105232763D01*
X114854185Y-105291942D01*
X114929885Y-105423058D01*
X115036942Y-105530115D01*
X115168058Y-105605815D01*
X115227235Y-105621671D01*
X114595064Y-106253841D01*
X114617682Y-106270274D01*
X114660347Y-106325604D01*
X114666326Y-106395218D01*
X114633720Y-106457013D01*
X114617682Y-106470909D01*
X114493928Y-106560823D01*
X114493919Y-106560830D01*
X114340830Y-106713919D01*
X114340830Y-106713920D01*
X114340828Y-106713922D01*
X114286174Y-106789145D01*
X114213567Y-106889080D01*
X114115273Y-107081990D01*
X114115272Y-107081993D01*
X114048370Y-107287901D01*
X114014500Y-107501746D01*
X114014500Y-107718253D01*
X114048370Y-107932098D01*
X114115272Y-108138006D01*
X114115273Y-108138009D01*
X114203163Y-108310500D01*
X114213567Y-108330919D01*
X114340828Y-108506078D01*
X114493922Y-108659172D01*
X114669081Y-108786433D01*
X114744773Y-108825000D01*
X114861990Y-108884726D01*
X114861993Y-108884727D01*
X114964947Y-108918178D01*
X115067903Y-108951630D01*
X115281746Y-108985500D01*
X115281747Y-108985500D01*
X115498253Y-108985500D01*
X115498254Y-108985500D01*
X115712097Y-108951630D01*
X115918009Y-108884726D01*
X116110919Y-108786433D01*
X116286078Y-108659172D01*
X116439172Y-108506078D01*
X116566433Y-108330919D01*
X116664726Y-108138009D01*
X116731630Y-107932097D01*
X116765500Y-107718254D01*
X116765500Y-107501746D01*
X116731630Y-107287903D01*
X116698178Y-107184947D01*
X116664727Y-107081993D01*
X116664726Y-107081990D01*
X116597051Y-106949172D01*
X116566433Y-106889081D01*
X116439172Y-106713922D01*
X116286078Y-106560828D01*
X116162316Y-106470909D01*
X116119652Y-106415580D01*
X116113673Y-106345966D01*
X116146279Y-106284171D01*
X116162316Y-106270275D01*
X116184933Y-106253841D01*
X115552763Y-105621671D01*
X115611942Y-105605815D01*
X115743058Y-105530115D01*
X115850115Y-105423058D01*
X115925815Y-105291942D01*
X115941671Y-105232763D01*
X116573841Y-105864933D01*
X116573842Y-105864933D01*
X116608768Y-105816863D01*
X116710599Y-105617010D01*
X116710600Y-105617007D01*
X116779910Y-105403689D01*
X116815000Y-105182149D01*
X116815000Y-104957850D01*
X116779910Y-104736310D01*
X116710600Y-104522992D01*
X116710599Y-104522989D01*
X116608769Y-104323137D01*
X116573841Y-104275065D01*
X116573841Y-104275064D01*
X115941671Y-104907235D01*
X115925815Y-104848058D01*
X115850115Y-104716942D01*
X115743058Y-104609885D01*
X115611942Y-104534185D01*
X115552764Y-104518328D01*
X116184934Y-103886158D01*
X116184933Y-103886157D01*
X116162317Y-103869725D01*
X116119652Y-103814395D01*
X116113673Y-103744781D01*
X116146279Y-103682986D01*
X116162318Y-103669089D01*
X116185634Y-103652149D01*
X116286078Y-103579172D01*
X116439172Y-103426078D01*
X116566433Y-103250919D01*
X116664726Y-103058009D01*
X116731630Y-102852097D01*
X116765500Y-102638254D01*
X116765500Y-102421746D01*
X116731630Y-102207903D01*
X116698178Y-102104947D01*
X116664727Y-102001993D01*
X116664726Y-102001990D01*
X116610760Y-101896078D01*
X116566433Y-101809081D01*
X116439172Y-101633922D01*
X116286078Y-101480828D01*
X116120208Y-101360316D01*
X116077545Y-101304988D01*
X116071566Y-101235375D01*
X116104172Y-101173580D01*
X116120205Y-101159686D01*
X116286078Y-101039172D01*
X116439172Y-100886078D01*
X116566433Y-100710919D01*
X116664726Y-100518009D01*
X116731630Y-100312097D01*
X116765500Y-100098254D01*
X116765500Y-99881746D01*
X116731630Y-99667903D01*
X116698178Y-99564947D01*
X116664727Y-99461993D01*
X116664726Y-99461990D01*
X116597051Y-99329172D01*
X116566433Y-99269081D01*
X116439172Y-99093922D01*
X116286078Y-98940828D01*
X116120208Y-98820316D01*
X116077545Y-98764988D01*
X116071566Y-98695375D01*
X116104172Y-98633580D01*
X116120205Y-98619686D01*
X116286078Y-98499172D01*
X116439172Y-98346078D01*
X116566433Y-98170919D01*
X116664726Y-97978009D01*
X116731630Y-97772097D01*
X116765500Y-97558254D01*
X116765500Y-97341746D01*
X116731630Y-97127903D01*
X116664726Y-96921991D01*
X116664726Y-96921990D01*
X116566432Y-96729080D01*
X116439172Y-96553922D01*
X116286078Y-96400828D01*
X116120208Y-96280316D01*
X116077545Y-96224988D01*
X116071566Y-96155375D01*
X116104172Y-96093580D01*
X116120205Y-96079686D01*
X116286078Y-95959172D01*
X116439172Y-95806078D01*
X116566433Y-95630919D01*
X116664726Y-95438009D01*
X116731630Y-95232097D01*
X116765500Y-95018254D01*
X116765500Y-94801746D01*
X116731630Y-94587903D01*
X116664726Y-94381991D01*
X116664726Y-94381990D01*
X116566432Y-94189080D01*
X116439172Y-94013922D01*
X116286078Y-93860828D01*
X116120208Y-93740316D01*
X116077545Y-93684988D01*
X116071566Y-93615375D01*
X116104172Y-93553580D01*
X116120205Y-93539686D01*
X116286078Y-93419172D01*
X116439172Y-93266078D01*
X116566433Y-93090919D01*
X116664726Y-92898009D01*
X116731630Y-92692097D01*
X116765500Y-92478254D01*
X116765500Y-92261746D01*
X116731630Y-92047903D01*
X116664726Y-91841991D01*
X116664726Y-91841990D01*
X116566432Y-91649080D01*
X116439172Y-91473922D01*
X116286078Y-91320828D01*
X116120208Y-91200316D01*
X116077545Y-91144988D01*
X116071566Y-91075375D01*
X116104172Y-91013580D01*
X116120205Y-90999686D01*
X116286078Y-90879172D01*
X116439172Y-90726078D01*
X116566433Y-90550919D01*
X116664726Y-90358009D01*
X116731630Y-90152097D01*
X116765500Y-89938254D01*
X116765500Y-89721746D01*
X116731630Y-89507903D01*
X116664726Y-89301991D01*
X116664726Y-89301990D01*
X116566432Y-89109080D01*
X116554881Y-89093181D01*
X116439172Y-88933922D01*
X116286078Y-88780828D01*
X116120208Y-88660316D01*
X116077545Y-88604988D01*
X116071566Y-88535375D01*
X116104172Y-88473580D01*
X116120205Y-88459686D01*
X116286078Y-88339172D01*
X116439172Y-88186078D01*
X116566433Y-88010919D01*
X116664726Y-87818009D01*
X116731630Y-87612097D01*
X116765500Y-87398254D01*
X116765500Y-87181746D01*
X116731630Y-86967903D01*
X116664726Y-86761991D01*
X116664726Y-86761990D01*
X116566432Y-86569080D01*
X116439172Y-86393922D01*
X116286078Y-86240828D01*
X116120208Y-86120316D01*
X116077545Y-86064988D01*
X116071566Y-85995375D01*
X116104172Y-85933580D01*
X116120205Y-85919686D01*
X116286078Y-85799172D01*
X116439172Y-85646078D01*
X116566433Y-85470919D01*
X116664726Y-85278009D01*
X116731630Y-85072097D01*
X116765500Y-84858254D01*
X116765500Y-84641746D01*
X116731630Y-84427903D01*
X116698178Y-84324947D01*
X116664727Y-84221993D01*
X116664726Y-84221990D01*
X116614642Y-84123697D01*
X116566433Y-84029081D01*
X116439172Y-83853922D01*
X116286078Y-83700828D01*
X116120208Y-83580316D01*
X116077545Y-83524988D01*
X116071566Y-83455375D01*
X116104172Y-83393580D01*
X116120205Y-83379686D01*
X116286078Y-83259172D01*
X116439172Y-83106078D01*
X116566433Y-82930919D01*
X116664726Y-82738009D01*
X116731630Y-82532097D01*
X116765500Y-82318254D01*
X116765500Y-82101746D01*
X116731630Y-81887903D01*
X116667334Y-81690018D01*
X116664727Y-81681993D01*
X116664726Y-81681990D01*
X116569415Y-81494934D01*
X116566433Y-81489081D01*
X116439172Y-81313922D01*
X116286078Y-81160828D01*
X116120208Y-81040316D01*
X116077545Y-80984988D01*
X116071566Y-80915375D01*
X116104172Y-80853580D01*
X116120205Y-80839686D01*
X116286078Y-80719172D01*
X116439172Y-80566078D01*
X116566433Y-80390919D01*
X116664726Y-80198009D01*
X116731630Y-79992097D01*
X116765500Y-79778254D01*
X116765500Y-79561746D01*
X116731630Y-79347903D01*
X116664726Y-79141991D01*
X116664726Y-79141990D01*
X116566432Y-78949080D01*
X116564926Y-78947007D01*
X116439172Y-78773922D01*
X116286078Y-78620828D01*
X116120208Y-78500316D01*
X116077545Y-78444988D01*
X116071566Y-78375375D01*
X116104172Y-78313580D01*
X116120205Y-78299686D01*
X116286078Y-78179172D01*
X116439172Y-78026078D01*
X116566433Y-77850919D01*
X116664726Y-77658009D01*
X116731630Y-77452097D01*
X116765500Y-77238254D01*
X116765500Y-77021746D01*
X116731630Y-76807903D01*
X116664726Y-76601991D01*
X116664726Y-76601990D01*
X116566432Y-76409080D01*
X116551121Y-76388006D01*
X116439172Y-76233922D01*
X116286078Y-76080828D01*
X116120208Y-75960316D01*
X116077545Y-75904988D01*
X116071566Y-75835375D01*
X116104172Y-75773580D01*
X116120205Y-75759686D01*
X116286078Y-75639172D01*
X116439172Y-75486078D01*
X116566433Y-75310919D01*
X116664726Y-75118009D01*
X116731630Y-74912097D01*
X116765500Y-74698254D01*
X116765500Y-74481746D01*
X116731630Y-74267903D01*
X116664726Y-74061991D01*
X116664726Y-74061990D01*
X116566432Y-73869080D01*
X116551121Y-73848006D01*
X116439172Y-73693922D01*
X116286078Y-73540828D01*
X116120208Y-73420316D01*
X116077545Y-73364988D01*
X116071566Y-73295375D01*
X116104172Y-73233580D01*
X116120205Y-73219686D01*
X116286078Y-73099172D01*
X116439172Y-72946078D01*
X116566433Y-72770919D01*
X116664726Y-72578009D01*
X116731630Y-72372097D01*
X116765500Y-72158254D01*
X116765500Y-71941746D01*
X116731630Y-71727903D01*
X116664726Y-71521991D01*
X116664726Y-71521990D01*
X116606647Y-71408006D01*
X116566433Y-71329081D01*
X116439172Y-71153922D01*
X116286078Y-71000828D01*
X116110919Y-70873567D01*
X116088408Y-70862097D01*
X115918009Y-70775273D01*
X115918006Y-70775272D01*
X115712098Y-70708370D01*
X115605175Y-70691435D01*
X115498254Y-70674500D01*
X115281746Y-70674500D01*
X115210465Y-70685790D01*
X115067901Y-70708370D01*
X114861993Y-70775272D01*
X114861990Y-70775273D01*
X114669080Y-70873567D01*
X114569145Y-70946174D01*
X114493922Y-71000828D01*
X114493920Y-71000830D01*
X114493919Y-71000830D01*
X114340830Y-71153919D01*
X114340830Y-71153920D01*
X114340828Y-71153922D01*
X114305827Y-71202097D01*
X114213567Y-71329080D01*
X114115273Y-71521990D01*
X114115272Y-71521993D01*
X114048370Y-71727901D01*
X114040739Y-71776080D01*
X114014500Y-71941746D01*
X114014500Y-72158254D01*
X114029082Y-72250318D01*
X114048370Y-72372098D01*
X114115272Y-72578006D01*
X114115273Y-72578009D01*
X114183637Y-72712179D01*
X114213567Y-72770919D01*
X114340828Y-72946078D01*
X114493922Y-73099172D01*
X114648190Y-73211255D01*
X114659789Y-73219682D01*
X114702454Y-73275012D01*
X114708433Y-73344626D01*
X114675827Y-73406421D01*
X114659788Y-73420318D01*
X114493922Y-73540828D01*
X114493920Y-73540830D01*
X114493919Y-73540830D01*
X114340830Y-73693919D01*
X114340830Y-73693920D01*
X114340828Y-73693922D01*
X114310083Y-73736239D01*
X114213567Y-73869080D01*
X114115273Y-74061990D01*
X114115272Y-74061993D01*
X114048370Y-74267901D01*
X114040739Y-74316080D01*
X114014500Y-74481746D01*
X114014500Y-74698254D01*
X114029082Y-74790318D01*
X114048370Y-74912098D01*
X114115272Y-75118006D01*
X114115273Y-75118009D01*
X114183637Y-75252179D01*
X114213567Y-75310919D01*
X114340828Y-75486078D01*
X114493922Y-75639172D01*
X114648190Y-75751255D01*
X114659789Y-75759682D01*
X114702454Y-75815012D01*
X114708433Y-75884626D01*
X114675827Y-75946421D01*
X114659788Y-75960318D01*
X114493922Y-76080828D01*
X114493920Y-76080830D01*
X114493919Y-76080830D01*
X114340830Y-76233919D01*
X114340830Y-76233920D01*
X114340828Y-76233922D01*
X114310083Y-76276239D01*
X114213567Y-76409080D01*
X114115273Y-76601990D01*
X114115272Y-76601993D01*
X114048370Y-76807901D01*
X114040739Y-76856080D01*
X114014500Y-77021746D01*
X114014500Y-77238254D01*
X114029082Y-77330318D01*
X114048370Y-77452098D01*
X114115272Y-77658006D01*
X114115273Y-77658009D01*
X114206934Y-77837901D01*
X114213567Y-77850919D01*
X114340828Y-78026078D01*
X114493922Y-78179172D01*
X114643504Y-78287850D01*
X114659789Y-78299682D01*
X114702454Y-78355012D01*
X114708433Y-78424626D01*
X114675827Y-78486421D01*
X114659788Y-78500318D01*
X114493922Y-78620828D01*
X114493920Y-78620830D01*
X114493919Y-78620830D01*
X114340830Y-78773919D01*
X114340830Y-78773920D01*
X114340828Y-78773922D01*
X114329940Y-78788908D01*
X114213567Y-78949080D01*
X114115273Y-79141990D01*
X114115272Y-79141993D01*
X114048370Y-79347901D01*
X114019511Y-79530107D01*
X114014500Y-79561746D01*
X114014500Y-79778254D01*
X114029082Y-79870318D01*
X114048370Y-79992098D01*
X114115272Y-80198006D01*
X114115273Y-80198009D01*
X114191159Y-80346942D01*
X114213567Y-80390919D01*
X114340828Y-80566078D01*
X114493922Y-80719172D01*
X114648190Y-80831255D01*
X114659789Y-80839682D01*
X114702454Y-80895012D01*
X114708433Y-80964626D01*
X114675827Y-81026421D01*
X114659788Y-81040318D01*
X114493922Y-81160828D01*
X114493920Y-81160830D01*
X114493919Y-81160830D01*
X114340830Y-81313919D01*
X114340830Y-81313920D01*
X114340828Y-81313922D01*
X114305827Y-81362097D01*
X114213567Y-81489080D01*
X114115273Y-81681990D01*
X114115272Y-81681993D01*
X114048370Y-81887901D01*
X114040739Y-81936080D01*
X114014500Y-82101746D01*
X114014500Y-82318254D01*
X114024280Y-82379999D01*
X114048370Y-82532098D01*
X114115272Y-82738006D01*
X114115273Y-82738009D01*
X114213567Y-82930919D01*
X114340828Y-83106078D01*
X114493922Y-83259172D01*
X114648190Y-83371255D01*
X114659789Y-83379682D01*
X114702454Y-83435012D01*
X114708433Y-83504626D01*
X114675827Y-83566421D01*
X114659788Y-83580318D01*
X114493922Y-83700828D01*
X114493920Y-83700830D01*
X114493919Y-83700830D01*
X114340830Y-83853919D01*
X114340830Y-83853920D01*
X114340828Y-83853922D01*
X114291982Y-83921153D01*
X114213567Y-84029080D01*
X114115273Y-84221990D01*
X114115272Y-84221993D01*
X114048370Y-84427901D01*
X114014500Y-84641746D01*
X114014500Y-84858253D01*
X114048370Y-85072098D01*
X114115272Y-85278006D01*
X114115273Y-85278009D01*
X114213567Y-85470919D01*
X114340828Y-85646078D01*
X114493922Y-85799172D01*
X114648190Y-85911255D01*
X114659789Y-85919682D01*
X114702454Y-85975012D01*
X114708433Y-86044626D01*
X114675827Y-86106421D01*
X114659788Y-86120318D01*
X114493922Y-86240828D01*
X114493920Y-86240830D01*
X114493919Y-86240830D01*
X114340830Y-86393919D01*
X114340830Y-86393920D01*
X114340828Y-86393922D01*
X114286174Y-86469145D01*
X114213567Y-86569080D01*
X114115273Y-86761990D01*
X114115272Y-86761993D01*
X114048370Y-86967901D01*
X114014500Y-87181746D01*
X114014500Y-87398253D01*
X114048370Y-87612098D01*
X114115272Y-87818006D01*
X114115273Y-87818009D01*
X114167831Y-87921158D01*
X114213567Y-88010919D01*
X114340828Y-88186078D01*
X114493922Y-88339172D01*
X114612489Y-88425316D01*
X114659789Y-88459682D01*
X114702454Y-88515012D01*
X114708433Y-88584626D01*
X114675827Y-88646421D01*
X114659788Y-88660318D01*
X114493922Y-88780828D01*
X114493920Y-88780830D01*
X114493919Y-88780830D01*
X114340830Y-88933919D01*
X114340830Y-88933920D01*
X114340828Y-88933922D01*
X114286174Y-89009145D01*
X114213567Y-89109080D01*
X114115273Y-89301990D01*
X114115272Y-89301993D01*
X114048370Y-89507901D01*
X114014500Y-89721746D01*
X114014500Y-89938253D01*
X114048370Y-90152098D01*
X114115272Y-90358006D01*
X114115273Y-90358009D01*
X114189445Y-90503578D01*
X114213567Y-90550919D01*
X114340828Y-90726078D01*
X114493922Y-90879172D01*
X114648190Y-90991255D01*
X114659789Y-90999682D01*
X114702454Y-91055012D01*
X114708433Y-91124626D01*
X114675827Y-91186421D01*
X114659788Y-91200318D01*
X114493922Y-91320828D01*
X114493920Y-91320830D01*
X114493919Y-91320830D01*
X114340830Y-91473919D01*
X114340830Y-91473920D01*
X114340828Y-91473922D01*
X114286174Y-91549145D01*
X114213567Y-91649080D01*
X114115273Y-91841990D01*
X114115272Y-91841993D01*
X114048370Y-92047901D01*
X114022308Y-92212449D01*
X114014500Y-92261746D01*
X114014500Y-92478254D01*
X114015398Y-92483922D01*
X114048370Y-92692098D01*
X114115272Y-92898006D01*
X114115273Y-92898009D01*
X114196743Y-93057901D01*
X114213567Y-93090919D01*
X114340828Y-93266078D01*
X114493922Y-93419172D01*
X114589005Y-93488254D01*
X114659789Y-93539682D01*
X114702454Y-93595012D01*
X114708433Y-93664626D01*
X114675827Y-93726421D01*
X114659788Y-93740318D01*
X114493922Y-93860828D01*
X114493920Y-93860830D01*
X114493919Y-93860830D01*
X114340830Y-94013919D01*
X114340830Y-94013920D01*
X114340828Y-94013922D01*
X114293661Y-94078842D01*
X114213567Y-94189080D01*
X114115273Y-94381990D01*
X114115272Y-94381993D01*
X114048370Y-94587901D01*
X114019570Y-94769735D01*
X114014500Y-94801746D01*
X114014500Y-95018254D01*
X114015398Y-95023922D01*
X114048370Y-95232098D01*
X114115272Y-95438006D01*
X114115273Y-95438009D01*
X114161279Y-95528299D01*
X114213567Y-95630919D01*
X114340828Y-95806078D01*
X114493922Y-95959172D01*
X114589005Y-96028254D01*
X114659789Y-96079682D01*
X114702454Y-96135012D01*
X114708433Y-96204626D01*
X114675827Y-96266421D01*
X114659788Y-96280318D01*
X114493922Y-96400828D01*
X114493920Y-96400830D01*
X114493919Y-96400830D01*
X114340830Y-96553919D01*
X114340830Y-96553920D01*
X114340828Y-96553922D01*
X114286174Y-96629145D01*
X114213567Y-96729080D01*
X114115273Y-96921990D01*
X114115272Y-96921993D01*
X114048370Y-97127901D01*
X114014500Y-97341746D01*
X114014500Y-97558254D01*
X114015398Y-97563922D01*
X114048370Y-97772098D01*
X114115272Y-97978006D01*
X114115273Y-97978009D01*
X114182822Y-98110579D01*
X114213567Y-98170919D01*
X114340828Y-98346078D01*
X114493922Y-98499172D01*
X114589005Y-98568254D01*
X114659789Y-98619682D01*
X114702454Y-98675012D01*
X114708433Y-98744626D01*
X114675827Y-98806421D01*
X114659788Y-98820318D01*
X114493922Y-98940828D01*
X114493920Y-98940830D01*
X114493919Y-98940830D01*
X114340830Y-99093919D01*
X114340830Y-99093920D01*
X114340828Y-99093922D01*
X114286174Y-99169145D01*
X114213567Y-99269080D01*
X114115273Y-99461990D01*
X114115272Y-99461993D01*
X114048370Y-99667901D01*
X114014500Y-99881746D01*
X114014500Y-100098254D01*
X114015398Y-100103922D01*
X114048370Y-100312098D01*
X114115272Y-100518006D01*
X114115273Y-100518009D01*
X114196743Y-100677901D01*
X114213567Y-100710919D01*
X114340828Y-100886078D01*
X114493922Y-101039172D01*
X114589005Y-101108254D01*
X114659789Y-101159682D01*
X114702454Y-101215012D01*
X114708433Y-101284626D01*
X114675827Y-101346421D01*
X114659788Y-101360318D01*
X114493922Y-101480828D01*
X114493920Y-101480830D01*
X114493919Y-101480830D01*
X114340830Y-101633919D01*
X114340830Y-101633920D01*
X114340828Y-101633922D01*
X114307954Y-101679169D01*
X114213567Y-101809080D01*
X114115273Y-102001990D01*
X114115272Y-102001993D01*
X114048370Y-102207901D01*
X114014500Y-102421746D01*
X114014500Y-102638253D01*
X114048370Y-102852098D01*
X114115272Y-103058006D01*
X114115273Y-103058009D01*
X114180969Y-103186942D01*
X114213567Y-103250919D01*
X114340828Y-103426078D01*
X114493922Y-103579172D01*
X114594366Y-103652149D01*
X114617682Y-103669089D01*
X114660347Y-103724419D01*
X114666326Y-103794033D01*
X114633720Y-103855828D01*
X114617681Y-103869725D01*
X114595065Y-103886156D01*
X114595065Y-103886158D01*
X115227236Y-104518328D01*
X115168058Y-104534185D01*
X115036942Y-104609885D01*
X114929885Y-104716942D01*
X114854185Y-104848058D01*
X114838328Y-104907235D01*
X114206158Y-104275065D01*
X114206156Y-104275065D01*
X114171232Y-104323134D01*
X114171230Y-104323138D01*
X114069400Y-104522989D01*
X114069399Y-104522992D01*
X114000089Y-104736310D01*
X113965000Y-104957850D01*
X92777290Y-104957850D01*
X92953689Y-104929910D01*
X93167007Y-104860600D01*
X93167010Y-104860599D01*
X93202545Y-104842493D01*
X93366863Y-104758768D01*
X93414933Y-104723842D01*
X93414933Y-104723841D01*
X92782763Y-104091671D01*
X92841942Y-104075815D01*
X92973058Y-104000115D01*
X93080115Y-103893058D01*
X93155815Y-103761942D01*
X93171671Y-103702763D01*
X93803841Y-104334933D01*
X93803842Y-104334933D01*
X93838768Y-104286863D01*
X93940599Y-104087010D01*
X93940600Y-104087007D01*
X94009910Y-103873689D01*
X94045000Y-103652149D01*
X94045000Y-103427850D01*
X94009910Y-103206310D01*
X93940600Y-102992992D01*
X93940599Y-102992989D01*
X93838769Y-102793137D01*
X93803841Y-102745065D01*
X93803841Y-102745064D01*
X93171671Y-103377235D01*
X93155815Y-103318058D01*
X93080115Y-103186942D01*
X92973058Y-103079885D01*
X92841942Y-103004185D01*
X92782764Y-102988328D01*
X93414934Y-102356158D01*
X93414933Y-102356157D01*
X93392317Y-102339725D01*
X93349652Y-102284395D01*
X93343673Y-102214781D01*
X93376279Y-102152986D01*
X93392318Y-102139089D01*
X93516078Y-102049172D01*
X93669172Y-101896078D01*
X93796433Y-101720919D01*
X93894726Y-101528009D01*
X93961630Y-101322097D01*
X93995500Y-101108254D01*
X93995500Y-100891746D01*
X93961630Y-100677903D01*
X93903145Y-100497901D01*
X93894727Y-100471993D01*
X93894726Y-100471990D01*
X93813256Y-100312098D01*
X93796433Y-100279081D01*
X93669172Y-100103922D01*
X93516078Y-99950828D01*
X93350208Y-99830316D01*
X93307545Y-99774988D01*
X93301566Y-99705375D01*
X93334172Y-99643580D01*
X93350205Y-99629686D01*
X93516078Y-99509172D01*
X93669172Y-99356078D01*
X93796433Y-99180919D01*
X93894726Y-98988009D01*
X93961630Y-98782097D01*
X93995500Y-98568254D01*
X93995500Y-98351746D01*
X93961630Y-98137903D01*
X93894726Y-97931991D01*
X93894726Y-97931990D01*
X93813256Y-97772098D01*
X93796433Y-97739081D01*
X93669172Y-97563922D01*
X93516078Y-97410828D01*
X93350208Y-97290316D01*
X93307545Y-97234988D01*
X93301566Y-97165375D01*
X93334172Y-97103580D01*
X93350205Y-97089686D01*
X93516078Y-96969172D01*
X93669172Y-96816078D01*
X93796433Y-96640919D01*
X93894726Y-96448009D01*
X93961630Y-96242097D01*
X93995500Y-96028254D01*
X93995500Y-95811746D01*
X93961630Y-95597903D01*
X93894726Y-95391991D01*
X93894726Y-95391990D01*
X93813256Y-95232098D01*
X93796433Y-95199081D01*
X93669172Y-95023922D01*
X93516078Y-94870828D01*
X93350208Y-94750316D01*
X93307545Y-94694988D01*
X93301566Y-94625375D01*
X93334172Y-94563580D01*
X93350205Y-94549686D01*
X93516078Y-94429172D01*
X93669172Y-94276078D01*
X93796433Y-94100919D01*
X93894726Y-93908009D01*
X93961630Y-93702097D01*
X93995500Y-93488254D01*
X93995500Y-93271746D01*
X93961630Y-93057903D01*
X93894726Y-92851991D01*
X93894726Y-92851990D01*
X93813256Y-92692098D01*
X93796433Y-92659081D01*
X93669172Y-92483922D01*
X93516078Y-92330828D01*
X93340919Y-92203567D01*
X93148009Y-92105273D01*
X93148006Y-92105272D01*
X92942098Y-92038370D01*
X92835175Y-92021435D01*
X92728254Y-92004500D01*
X92511746Y-92004500D01*
X92440465Y-92015790D01*
X92297901Y-92038370D01*
X92091993Y-92105272D01*
X92091990Y-92105273D01*
X91899078Y-92203568D01*
X91897379Y-92204803D01*
X91896622Y-92205072D01*
X91894925Y-92206113D01*
X91894706Y-92205756D01*
X91831572Y-92228278D01*
X91763519Y-92212449D01*
X91714827Y-92162340D01*
X91700500Y-92104480D01*
X91700500Y-90425316D01*
X91709939Y-90377864D01*
X91769735Y-90233501D01*
X91769737Y-90233497D01*
X91800500Y-90078842D01*
X91800500Y-89921158D01*
X91800500Y-89921155D01*
X91800499Y-89921153D01*
X91769738Y-89766510D01*
X91769737Y-89766503D01*
X91751198Y-89721746D01*
X91709397Y-89620827D01*
X91709390Y-89620814D01*
X91621789Y-89489711D01*
X91621786Y-89489707D01*
X91510292Y-89378213D01*
X91510288Y-89378210D01*
X91379185Y-89290609D01*
X91379172Y-89290602D01*
X91233501Y-89230264D01*
X91233489Y-89230261D01*
X91078845Y-89199500D01*
X91078842Y-89199500D01*
X90921158Y-89199500D01*
X90921155Y-89199500D01*
X90766510Y-89230261D01*
X90766498Y-89230264D01*
X90620827Y-89290602D01*
X90620814Y-89290609D01*
X90489711Y-89378210D01*
X90489707Y-89378213D01*
X90412181Y-89455740D01*
X90350858Y-89489225D01*
X90281166Y-89484241D01*
X90225233Y-89442369D01*
X90200816Y-89376905D01*
X90200500Y-89368059D01*
X90200500Y-88425316D01*
X90209939Y-88377864D01*
X90269735Y-88233501D01*
X90269737Y-88233497D01*
X90300500Y-88078842D01*
X90300500Y-87921158D01*
X90300500Y-87921155D01*
X90300499Y-87921153D01*
X90279982Y-87818009D01*
X90269737Y-87766503D01*
X90269735Y-87766498D01*
X90209397Y-87620827D01*
X90209390Y-87620814D01*
X90121789Y-87489711D01*
X90121786Y-87489707D01*
X90010292Y-87378213D01*
X90010288Y-87378210D01*
X89879185Y-87290609D01*
X89879172Y-87290602D01*
X89733501Y-87230264D01*
X89733489Y-87230261D01*
X89578845Y-87199500D01*
X89578842Y-87199500D01*
X89421158Y-87199500D01*
X89421155Y-87199500D01*
X89266510Y-87230261D01*
X89266498Y-87230264D01*
X89120827Y-87290602D01*
X89120814Y-87290609D01*
X88989711Y-87378210D01*
X88989707Y-87378213D01*
X88878213Y-87489707D01*
X88878210Y-87489711D01*
X88790609Y-87620814D01*
X88790602Y-87620827D01*
X88730264Y-87766498D01*
X88730261Y-87766510D01*
X88699500Y-87921153D01*
X84500500Y-87921153D01*
X84500500Y-82068996D01*
X88299499Y-82068996D01*
X88326418Y-82204322D01*
X88326421Y-82204332D01*
X88379222Y-82331807D01*
X88455887Y-82446545D01*
X88455888Y-82446546D01*
X90203928Y-84194585D01*
X90230808Y-84234814D01*
X90290602Y-84379172D01*
X90290609Y-84379185D01*
X90378210Y-84510288D01*
X90378213Y-84510292D01*
X90489707Y-84621786D01*
X90489711Y-84621789D01*
X90620814Y-84709390D01*
X90620827Y-84709397D01*
X90766498Y-84769735D01*
X90766503Y-84769737D01*
X90921153Y-84800499D01*
X90921156Y-84800500D01*
X90921158Y-84800500D01*
X91078844Y-84800500D01*
X91078845Y-84800499D01*
X91233497Y-84769737D01*
X91379179Y-84709394D01*
X91510289Y-84621789D01*
X91621789Y-84510289D01*
X91709394Y-84379179D01*
X91769737Y-84233497D01*
X91800500Y-84078842D01*
X91800500Y-83921158D01*
X91800500Y-83921155D01*
X91800499Y-83921153D01*
X91769738Y-83766510D01*
X91769737Y-83766503D01*
X91742534Y-83700828D01*
X91709397Y-83620827D01*
X91709390Y-83620814D01*
X91621789Y-83489711D01*
X91621786Y-83489707D01*
X91510292Y-83378213D01*
X91510288Y-83378210D01*
X91379185Y-83290609D01*
X91379172Y-83290602D01*
X91234814Y-83230808D01*
X91194585Y-83203928D01*
X89736819Y-81746162D01*
X89703334Y-81684839D01*
X89700500Y-81658481D01*
X89700500Y-71341519D01*
X89720185Y-71274480D01*
X89736819Y-71253838D01*
X90437203Y-70553454D01*
X91172526Y-69818130D01*
X91233847Y-69784647D01*
X91303539Y-69789631D01*
X91359472Y-69831503D01*
X91383889Y-69896967D01*
X91370690Y-69962107D01*
X91345276Y-70011984D01*
X91345272Y-70011993D01*
X91278370Y-70217901D01*
X91257132Y-70351990D01*
X91244500Y-70431746D01*
X91244500Y-70648254D01*
X91247658Y-70668192D01*
X91278370Y-70862098D01*
X91345272Y-71068006D01*
X91345273Y-71068009D01*
X91413596Y-71202098D01*
X91443567Y-71260919D01*
X91570828Y-71436078D01*
X91723922Y-71589172D01*
X91843539Y-71676079D01*
X91889789Y-71709682D01*
X91932454Y-71765012D01*
X91938433Y-71834626D01*
X91905827Y-71896421D01*
X91889788Y-71910318D01*
X91723922Y-72030828D01*
X91723920Y-72030830D01*
X91723919Y-72030830D01*
X91570830Y-72183919D01*
X91570830Y-72183920D01*
X91570828Y-72183922D01*
X91532685Y-72236421D01*
X91443567Y-72359080D01*
X91345273Y-72551990D01*
X91345272Y-72551993D01*
X91278370Y-72757901D01*
X91244500Y-72971746D01*
X91244500Y-73188253D01*
X91278370Y-73402098D01*
X91345272Y-73608006D01*
X91345273Y-73608009D01*
X91413596Y-73742098D01*
X91443567Y-73800919D01*
X91570828Y-73976078D01*
X91723922Y-74129172D01*
X91843539Y-74216079D01*
X91889789Y-74249682D01*
X91932454Y-74305012D01*
X91938433Y-74374626D01*
X91905827Y-74436421D01*
X91889788Y-74450318D01*
X91723922Y-74570828D01*
X91723920Y-74570830D01*
X91723919Y-74570830D01*
X91570830Y-74723919D01*
X91570830Y-74723920D01*
X91570828Y-74723922D01*
X91532685Y-74776421D01*
X91443567Y-74899080D01*
X91345273Y-75091990D01*
X91345272Y-75091993D01*
X91278370Y-75297901D01*
X91244500Y-75511746D01*
X91244500Y-75728253D01*
X91278370Y-75942098D01*
X91345272Y-76148006D01*
X91345273Y-76148009D01*
X91413596Y-76282098D01*
X91443567Y-76340919D01*
X91570828Y-76516078D01*
X91723922Y-76669172D01*
X91843539Y-76756079D01*
X91889789Y-76789682D01*
X91932454Y-76845012D01*
X91938433Y-76914626D01*
X91905827Y-76976421D01*
X91889788Y-76990318D01*
X91723922Y-77110828D01*
X91723920Y-77110830D01*
X91723919Y-77110830D01*
X91570830Y-77263919D01*
X91570830Y-77263920D01*
X91570828Y-77263922D01*
X91532685Y-77316421D01*
X91443567Y-77439080D01*
X91345273Y-77631990D01*
X91345272Y-77631993D01*
X91278370Y-77837901D01*
X91244500Y-78051746D01*
X91244500Y-78268253D01*
X91278370Y-78482098D01*
X91345272Y-78688006D01*
X91345273Y-78688009D01*
X91413596Y-78822098D01*
X91443567Y-78880919D01*
X91570828Y-79056078D01*
X91723922Y-79209172D01*
X91847682Y-79299089D01*
X91890347Y-79354419D01*
X91896326Y-79424033D01*
X91863720Y-79485828D01*
X91847681Y-79499725D01*
X91825065Y-79516156D01*
X91825065Y-79516158D01*
X92457236Y-80148328D01*
X92398058Y-80164185D01*
X92266942Y-80239885D01*
X92159885Y-80346942D01*
X92084185Y-80478058D01*
X92068328Y-80537235D01*
X91436158Y-79905065D01*
X91436156Y-79905065D01*
X91401232Y-79953134D01*
X91401230Y-79953138D01*
X91299400Y-80152989D01*
X91299399Y-80152992D01*
X91230089Y-80366310D01*
X91195000Y-80587850D01*
X91195000Y-80812149D01*
X91230089Y-81033689D01*
X91299399Y-81247007D01*
X91299400Y-81247010D01*
X91401231Y-81446863D01*
X91436157Y-81494933D01*
X91436158Y-81494934D01*
X92068328Y-80862763D01*
X92084185Y-80921942D01*
X92159885Y-81053058D01*
X92266942Y-81160115D01*
X92398058Y-81235815D01*
X92457235Y-81251671D01*
X91825064Y-81883841D01*
X91873137Y-81918769D01*
X92072989Y-82020599D01*
X92072992Y-82020600D01*
X92286310Y-82089910D01*
X92507851Y-82125000D01*
X92732149Y-82125000D01*
X92953689Y-82089910D01*
X93167007Y-82020600D01*
X93167010Y-82020599D01*
X93366863Y-81918768D01*
X93414933Y-81883842D01*
X93414933Y-81883841D01*
X92782763Y-81251671D01*
X92841942Y-81235815D01*
X92973058Y-81160115D01*
X93080115Y-81053058D01*
X93155815Y-80921942D01*
X93171671Y-80862763D01*
X93803841Y-81494933D01*
X93803842Y-81494933D01*
X93838768Y-81446863D01*
X93940599Y-81247010D01*
X93940600Y-81247007D01*
X94009910Y-81033689D01*
X94045000Y-80812149D01*
X94045000Y-80587850D01*
X94009910Y-80366310D01*
X93940600Y-80152992D01*
X93940599Y-80152989D01*
X93838769Y-79953137D01*
X93803841Y-79905065D01*
X93803841Y-79905064D01*
X93171671Y-80537235D01*
X93155815Y-80478058D01*
X93080115Y-80346942D01*
X92973058Y-80239885D01*
X92841942Y-80164185D01*
X92782764Y-80148328D01*
X93414934Y-79516158D01*
X93414933Y-79516157D01*
X93392317Y-79499725D01*
X93349652Y-79444395D01*
X93343673Y-79374781D01*
X93376279Y-79312986D01*
X93392318Y-79299089D01*
X93516078Y-79209172D01*
X93669172Y-79056078D01*
X93796433Y-78880919D01*
X93894726Y-78688009D01*
X93961630Y-78482097D01*
X93995500Y-78268254D01*
X93995500Y-78051746D01*
X93961630Y-77837903D01*
X93894726Y-77631991D01*
X93894726Y-77631990D01*
X93812131Y-77469890D01*
X93796433Y-77439081D01*
X93669172Y-77263922D01*
X93516078Y-77110828D01*
X93350208Y-76990316D01*
X93307545Y-76934988D01*
X93301566Y-76865375D01*
X93334172Y-76803580D01*
X93350205Y-76789686D01*
X93516078Y-76669172D01*
X93669172Y-76516078D01*
X93796433Y-76340919D01*
X93894726Y-76148009D01*
X93961630Y-75942097D01*
X93995500Y-75728254D01*
X93995500Y-75511746D01*
X93961630Y-75297903D01*
X93894726Y-75091991D01*
X93894726Y-75091990D01*
X93812131Y-74929890D01*
X93796433Y-74899081D01*
X93669172Y-74723922D01*
X93516078Y-74570828D01*
X93350208Y-74450316D01*
X93307545Y-74394988D01*
X93301566Y-74325375D01*
X93334172Y-74263580D01*
X93350205Y-74249686D01*
X93516078Y-74129172D01*
X93669172Y-73976078D01*
X93796433Y-73800919D01*
X93894726Y-73608009D01*
X93961630Y-73402097D01*
X93995500Y-73188254D01*
X93995500Y-72971746D01*
X93961630Y-72757903D01*
X93894726Y-72551991D01*
X93894726Y-72551990D01*
X93812131Y-72389890D01*
X93796433Y-72359081D01*
X93669172Y-72183922D01*
X93516078Y-72030828D01*
X93350013Y-71910174D01*
X93328896Y-71882677D01*
X93307545Y-71854988D01*
X93307534Y-71854861D01*
X93307457Y-71854761D01*
X93304536Y-71819954D01*
X93301566Y-71785375D01*
X93301624Y-71785263D01*
X93301614Y-71785136D01*
X93318024Y-71754182D01*
X93334172Y-71723580D01*
X93334314Y-71723456D01*
X93334342Y-71723405D01*
X93334432Y-71723353D01*
X93350205Y-71709686D01*
X93516078Y-71589172D01*
X93669172Y-71436078D01*
X93796433Y-71260919D01*
X93894726Y-71068009D01*
X93961630Y-70862097D01*
X93995500Y-70648254D01*
X93995500Y-70431746D01*
X93961630Y-70217903D01*
X93894726Y-70011991D01*
X93894726Y-70011990D01*
X93796432Y-69819080D01*
X93669172Y-69643922D01*
X93516078Y-69490828D01*
X93425222Y-69424817D01*
X93382558Y-69369488D01*
X93376579Y-69299874D01*
X93409185Y-69238079D01*
X93470024Y-69203722D01*
X93498109Y-69200500D01*
X97158481Y-69200500D01*
X97225520Y-69220185D01*
X97246162Y-69236819D01*
X97553453Y-69544111D01*
X97553454Y-69544112D01*
X97668192Y-69620777D01*
X97795667Y-69673578D01*
X97795672Y-69673580D01*
X97795676Y-69673580D01*
X97795677Y-69673581D01*
X97931003Y-69700500D01*
X97931006Y-69700500D01*
X97931007Y-69700500D01*
X117158481Y-69700500D01*
X117225520Y-69720185D01*
X117246162Y-69736819D01*
X137883453Y-90374111D01*
X137883454Y-90374112D01*
X137998192Y-90450777D01*
X138125667Y-90503578D01*
X138125672Y-90503580D01*
X138125676Y-90503580D01*
X138125677Y-90503581D01*
X138261004Y-90530500D01*
X138261007Y-90530500D01*
X139565550Y-90530500D01*
X139632589Y-90550185D01*
X139665869Y-90581614D01*
X139770828Y-90726078D01*
X139923922Y-90879172D01*
X140078190Y-90991255D01*
X140089789Y-90999682D01*
X140132454Y-91055012D01*
X140138433Y-91124626D01*
X140105827Y-91186421D01*
X140089788Y-91200318D01*
X139923922Y-91320828D01*
X139923920Y-91320830D01*
X139923919Y-91320830D01*
X139770830Y-91473919D01*
X139770830Y-91473920D01*
X139770828Y-91473922D01*
X139716174Y-91549145D01*
X139643567Y-91649080D01*
X139545273Y-91841990D01*
X139545272Y-91841993D01*
X139478370Y-92047901D01*
X139452308Y-92212449D01*
X139444500Y-92261746D01*
X139444500Y-92478254D01*
X139445398Y-92483922D01*
X139478370Y-92692098D01*
X139545272Y-92898006D01*
X139545273Y-92898009D01*
X139626743Y-93057901D01*
X139643567Y-93090919D01*
X139770828Y-93266078D01*
X139923922Y-93419172D01*
X140019005Y-93488254D01*
X140089789Y-93539682D01*
X140132454Y-93595012D01*
X140138433Y-93664626D01*
X140105827Y-93726421D01*
X140089788Y-93740318D01*
X139923922Y-93860828D01*
X139923920Y-93860830D01*
X139923919Y-93860830D01*
X139770830Y-94013919D01*
X139770830Y-94013920D01*
X139770828Y-94013922D01*
X139723661Y-94078842D01*
X139643567Y-94189080D01*
X139545273Y-94381990D01*
X139545272Y-94381993D01*
X139478370Y-94587901D01*
X139449570Y-94769735D01*
X139444500Y-94801746D01*
X139444500Y-95018254D01*
X139445398Y-95023922D01*
X139478370Y-95232098D01*
X139545272Y-95438006D01*
X139545273Y-95438009D01*
X139591279Y-95528299D01*
X139643567Y-95630919D01*
X139770828Y-95806078D01*
X139923922Y-95959172D01*
X140019005Y-96028254D01*
X140089789Y-96079682D01*
X140132454Y-96135012D01*
X140138433Y-96204626D01*
X140105827Y-96266421D01*
X140089788Y-96280318D01*
X139923922Y-96400828D01*
X139923920Y-96400830D01*
X139923919Y-96400830D01*
X139770830Y-96553919D01*
X139770830Y-96553920D01*
X139770828Y-96553922D01*
X139716174Y-96629145D01*
X139643567Y-96729080D01*
X139545273Y-96921990D01*
X139545272Y-96921993D01*
X139478370Y-97127901D01*
X139444500Y-97341746D01*
X139444500Y-97558254D01*
X139445398Y-97563922D01*
X139478370Y-97772098D01*
X139545272Y-97978006D01*
X139545273Y-97978009D01*
X139612822Y-98110579D01*
X139643567Y-98170919D01*
X139770828Y-98346078D01*
X139923922Y-98499172D01*
X140019005Y-98568254D01*
X140089789Y-98619682D01*
X140132454Y-98675012D01*
X140138433Y-98744626D01*
X140105827Y-98806421D01*
X140089788Y-98820318D01*
X139923922Y-98940828D01*
X139923920Y-98940830D01*
X139923919Y-98940830D01*
X139770830Y-99093919D01*
X139770830Y-99093920D01*
X139770828Y-99093922D01*
X139716174Y-99169145D01*
X139643567Y-99269080D01*
X139545273Y-99461990D01*
X139545272Y-99461993D01*
X139478370Y-99667901D01*
X139444500Y-99881746D01*
X139444500Y-100098254D01*
X139445398Y-100103922D01*
X139478370Y-100312098D01*
X139545272Y-100518006D01*
X139545273Y-100518009D01*
X139626743Y-100677901D01*
X139643567Y-100710919D01*
X139770828Y-100886078D01*
X139923922Y-101039172D01*
X140019005Y-101108254D01*
X140089789Y-101159682D01*
X140132454Y-101215012D01*
X140138433Y-101284626D01*
X140105827Y-101346421D01*
X140089788Y-101360318D01*
X139923922Y-101480828D01*
X139923920Y-101480830D01*
X139923919Y-101480830D01*
X139770830Y-101633919D01*
X139770830Y-101633920D01*
X139770828Y-101633922D01*
X139737954Y-101679169D01*
X139643567Y-101809080D01*
X139545273Y-102001990D01*
X139545272Y-102001993D01*
X139478370Y-102207901D01*
X139444500Y-102421746D01*
X139444500Y-102638253D01*
X139478370Y-102852098D01*
X139545272Y-103058006D01*
X139545273Y-103058009D01*
X139610969Y-103186942D01*
X139643567Y-103250919D01*
X139770828Y-103426078D01*
X139923922Y-103579172D01*
X140024366Y-103652149D01*
X140047682Y-103669089D01*
X140090347Y-103724419D01*
X140096326Y-103794033D01*
X140063720Y-103855828D01*
X140047681Y-103869725D01*
X140025065Y-103886156D01*
X140025065Y-103886158D01*
X140657236Y-104518328D01*
X140598058Y-104534185D01*
X140466942Y-104609885D01*
X140359885Y-104716942D01*
X140284185Y-104848058D01*
X140268328Y-104907235D01*
X139636158Y-104275065D01*
X139636156Y-104275065D01*
X139601232Y-104323134D01*
X139601230Y-104323138D01*
X139499400Y-104522989D01*
X139499399Y-104522992D01*
X139430089Y-104736310D01*
X139395000Y-104957850D01*
X139395000Y-105182149D01*
X139430089Y-105403689D01*
X139499399Y-105617007D01*
X139499400Y-105617010D01*
X139601231Y-105816863D01*
X139636157Y-105864933D01*
X139636158Y-105864934D01*
X140268328Y-105232763D01*
X140284185Y-105291942D01*
X140359885Y-105423058D01*
X140466942Y-105530115D01*
X140598058Y-105605815D01*
X140657235Y-105621671D01*
X140025064Y-106253841D01*
X140047682Y-106270274D01*
X140090347Y-106325604D01*
X140096326Y-106395218D01*
X140063720Y-106457013D01*
X140047682Y-106470909D01*
X139923928Y-106560823D01*
X139923919Y-106560830D01*
X139770829Y-106713920D01*
X139665868Y-106858386D01*
X139610537Y-106901051D01*
X139565550Y-106909500D01*
X135821003Y-106909500D01*
X135712590Y-106931065D01*
X135712589Y-106931065D01*
X135699131Y-106933742D01*
X135685673Y-106936419D01*
X135685671Y-106936420D01*
X135632866Y-106958292D01*
X135632864Y-106958293D01*
X135632863Y-106958292D01*
X135558191Y-106989223D01*
X135445534Y-107064498D01*
X135445533Y-107064500D01*
X135444500Y-107065190D01*
X135443452Y-107065890D01*
X128805412Y-113703929D01*
X128765184Y-113730809D01*
X128620823Y-113790604D01*
X128620814Y-113790609D01*
X128489711Y-113878210D01*
X128489707Y-113878213D01*
X128378213Y-113989707D01*
X128378210Y-113989711D01*
X128290609Y-114120814D01*
X128290602Y-114120827D01*
X128230264Y-114266498D01*
X128230261Y-114266510D01*
X128199500Y-114421153D01*
X128199500Y-114578846D01*
X128230261Y-114733489D01*
X128230264Y-114733501D01*
X128290602Y-114879172D01*
X128290609Y-114879185D01*
X128378210Y-115010288D01*
X128378213Y-115010292D01*
X128489707Y-115121786D01*
X128489711Y-115121789D01*
X128620814Y-115209390D01*
X128620827Y-115209397D01*
X128766498Y-115269735D01*
X128766503Y-115269737D01*
X128921153Y-115300499D01*
X128921156Y-115300500D01*
X128921158Y-115300500D01*
X129078844Y-115300500D01*
X129078845Y-115300499D01*
X129233497Y-115269737D01*
X129379179Y-115209394D01*
X129510289Y-115121789D01*
X129621789Y-115010289D01*
X129709394Y-114879179D01*
X129709395Y-114879176D01*
X129709397Y-114879173D01*
X129769192Y-114734812D01*
X129796069Y-114694586D01*
X136143837Y-108346819D01*
X136205160Y-108313334D01*
X136231518Y-108310500D01*
X139565550Y-108310500D01*
X139632589Y-108330185D01*
X139665869Y-108361614D01*
X139770828Y-108506078D01*
X139923922Y-108659172D01*
X140099081Y-108786433D01*
X140174773Y-108825000D01*
X140291990Y-108884726D01*
X140291993Y-108884727D01*
X140394947Y-108918178D01*
X140497903Y-108951630D01*
X140711746Y-108985500D01*
X140711747Y-108985500D01*
X140928253Y-108985500D01*
X140928254Y-108985500D01*
X141142097Y-108951630D01*
X141348009Y-108884726D01*
X141540919Y-108786433D01*
X141716078Y-108659172D01*
X141869172Y-108506078D01*
X141996433Y-108330919D01*
X142094726Y-108138009D01*
X142094778Y-108137850D01*
X154825000Y-108137850D01*
X154825000Y-108362149D01*
X154860089Y-108583689D01*
X154929399Y-108797007D01*
X154929400Y-108797010D01*
X155031231Y-108996863D01*
X155066157Y-109044933D01*
X155066158Y-109044934D01*
X155698328Y-108412763D01*
X155714185Y-108471942D01*
X155789885Y-108603058D01*
X155896942Y-108710115D01*
X156028058Y-108785815D01*
X156087235Y-108801671D01*
X155455064Y-109433841D01*
X155503137Y-109468769D01*
X155702989Y-109570599D01*
X155702992Y-109570600D01*
X155916310Y-109639910D01*
X156137851Y-109675000D01*
X156362149Y-109675000D01*
X156583689Y-109639910D01*
X156797007Y-109570600D01*
X156797010Y-109570599D01*
X156996863Y-109468768D01*
X157044933Y-109433842D01*
X157044933Y-109433841D01*
X156412763Y-108801671D01*
X156471942Y-108785815D01*
X156603058Y-108710115D01*
X156710115Y-108603058D01*
X156785815Y-108471942D01*
X156801671Y-108412763D01*
X157433841Y-109044933D01*
X157433842Y-109044933D01*
X157468768Y-108996863D01*
X157570599Y-108797010D01*
X157570600Y-108797007D01*
X157639910Y-108583689D01*
X157675000Y-108362149D01*
X157675000Y-108137850D01*
X157639910Y-107916310D01*
X157570600Y-107702992D01*
X157570599Y-107702989D01*
X157468769Y-107503137D01*
X157433841Y-107455065D01*
X157433841Y-107455064D01*
X156801671Y-108087235D01*
X156785815Y-108028058D01*
X156710115Y-107896942D01*
X156603058Y-107789885D01*
X156471942Y-107714185D01*
X156412764Y-107698328D01*
X157044934Y-107066158D01*
X157044933Y-107066157D01*
X157022317Y-107049725D01*
X156979652Y-106994395D01*
X156973673Y-106924781D01*
X157006279Y-106862986D01*
X157022318Y-106849089D01*
X157146078Y-106759172D01*
X157299172Y-106606078D01*
X157426433Y-106430919D01*
X157524726Y-106238009D01*
X157591630Y-106032097D01*
X157625500Y-105818254D01*
X157625500Y-105601746D01*
X157591630Y-105387903D01*
X157558178Y-105284947D01*
X157524727Y-105181993D01*
X157524726Y-105181990D01*
X157467663Y-105069999D01*
X157426433Y-104989081D01*
X157299172Y-104813922D01*
X157146078Y-104660828D01*
X156980208Y-104540316D01*
X156937545Y-104484988D01*
X156931566Y-104415375D01*
X156964172Y-104353580D01*
X156980205Y-104339686D01*
X157146078Y-104219172D01*
X157299172Y-104066078D01*
X157426433Y-103890919D01*
X157524726Y-103698009D01*
X157591630Y-103492097D01*
X157625500Y-103278254D01*
X157625500Y-103061746D01*
X157591630Y-102847903D01*
X157524726Y-102641991D01*
X157524726Y-102641990D01*
X157474642Y-102543697D01*
X157426433Y-102449081D01*
X157299172Y-102273922D01*
X157146078Y-102120828D01*
X156980208Y-102000316D01*
X156937545Y-101944988D01*
X156931566Y-101875375D01*
X156964172Y-101813580D01*
X156980205Y-101799686D01*
X157146078Y-101679172D01*
X157299172Y-101526078D01*
X157426433Y-101350919D01*
X157524726Y-101158009D01*
X157591630Y-100952097D01*
X157625500Y-100738254D01*
X157625500Y-100521746D01*
X157591630Y-100307903D01*
X157558178Y-100204947D01*
X157524727Y-100101993D01*
X157524726Y-100101990D01*
X157447704Y-99950828D01*
X157426433Y-99909081D01*
X157299172Y-99733922D01*
X157146078Y-99580828D01*
X156970919Y-99453567D01*
X156963294Y-99449682D01*
X156778009Y-99355273D01*
X156778006Y-99355272D01*
X156572098Y-99288370D01*
X156450307Y-99269080D01*
X156358254Y-99254500D01*
X156141746Y-99254500D01*
X156070465Y-99265790D01*
X155927901Y-99288370D01*
X155721993Y-99355272D01*
X155721990Y-99355273D01*
X155529080Y-99453567D01*
X155430246Y-99525375D01*
X155353922Y-99580828D01*
X155353920Y-99580830D01*
X155353919Y-99580830D01*
X155200830Y-99733919D01*
X155200830Y-99733920D01*
X155200828Y-99733922D01*
X155185786Y-99754626D01*
X155073567Y-99909080D01*
X154975273Y-100101990D01*
X154975272Y-100101993D01*
X154908370Y-100307901D01*
X154874500Y-100521746D01*
X154874500Y-100738253D01*
X154908370Y-100952098D01*
X154975272Y-101158006D01*
X154975273Y-101158009D01*
X155014694Y-101235375D01*
X155073567Y-101350919D01*
X155200828Y-101526078D01*
X155353922Y-101679172D01*
X155411382Y-101720919D01*
X155519789Y-101799682D01*
X155562454Y-101855012D01*
X155568433Y-101924626D01*
X155535827Y-101986421D01*
X155519788Y-102000318D01*
X155353922Y-102120828D01*
X155353920Y-102120830D01*
X155353919Y-102120830D01*
X155200830Y-102273919D01*
X155200830Y-102273920D01*
X155200828Y-102273922D01*
X155200244Y-102274726D01*
X155073567Y-102449080D01*
X154975273Y-102641990D01*
X154975272Y-102641993D01*
X154908370Y-102847901D01*
X154889823Y-102965000D01*
X154874500Y-103061746D01*
X154874500Y-103278254D01*
X154891435Y-103385175D01*
X154908370Y-103492098D01*
X154975272Y-103698006D01*
X154975273Y-103698009D01*
X155055687Y-103855828D01*
X155073567Y-103890919D01*
X155200828Y-104066078D01*
X155353922Y-104219172D01*
X155497013Y-104323134D01*
X155519789Y-104339682D01*
X155562454Y-104395012D01*
X155568433Y-104464626D01*
X155535827Y-104526421D01*
X155519788Y-104540318D01*
X155353922Y-104660828D01*
X155353920Y-104660830D01*
X155353919Y-104660830D01*
X155200830Y-104813919D01*
X155200830Y-104813920D01*
X155200828Y-104813922D01*
X155152468Y-104880484D01*
X155073567Y-104989080D01*
X154975273Y-105181990D01*
X154975272Y-105181993D01*
X154908370Y-105387901D01*
X154874500Y-105601746D01*
X154874500Y-105818253D01*
X154908370Y-106032098D01*
X154975272Y-106238006D01*
X154975273Y-106238009D01*
X155055376Y-106395218D01*
X155073567Y-106430919D01*
X155200828Y-106606078D01*
X155353922Y-106759172D01*
X155477682Y-106849089D01*
X155520347Y-106904419D01*
X155526326Y-106974033D01*
X155493720Y-107035828D01*
X155477681Y-107049725D01*
X155455065Y-107066156D01*
X155455065Y-107066158D01*
X156087236Y-107698328D01*
X156028058Y-107714185D01*
X155896942Y-107789885D01*
X155789885Y-107896942D01*
X155714185Y-108028058D01*
X155698328Y-108087235D01*
X155066158Y-107455065D01*
X155066156Y-107455065D01*
X155031232Y-107503134D01*
X155031230Y-107503138D01*
X154929400Y-107702989D01*
X154929399Y-107702992D01*
X154860089Y-107916310D01*
X154825000Y-108137850D01*
X142094778Y-108137850D01*
X142101259Y-108117903D01*
X142108811Y-108094661D01*
X142108811Y-108094660D01*
X142130451Y-108028058D01*
X142161630Y-107932097D01*
X142195500Y-107718254D01*
X142195500Y-107501746D01*
X142161630Y-107287903D01*
X142128178Y-107184947D01*
X142094727Y-107081993D01*
X142094726Y-107081990D01*
X142027051Y-106949172D01*
X141996433Y-106889081D01*
X141869172Y-106713922D01*
X141716078Y-106560828D01*
X141592316Y-106470909D01*
X141549652Y-106415580D01*
X141543673Y-106345966D01*
X141576279Y-106284171D01*
X141592316Y-106270275D01*
X141614933Y-106253841D01*
X140982763Y-105621671D01*
X141041942Y-105605815D01*
X141173058Y-105530115D01*
X141280115Y-105423058D01*
X141355815Y-105291942D01*
X141371671Y-105232763D01*
X142003841Y-105864933D01*
X142003842Y-105864933D01*
X142038768Y-105816863D01*
X142140599Y-105617010D01*
X142140600Y-105617007D01*
X142209910Y-105403689D01*
X142245000Y-105182149D01*
X142245000Y-104957850D01*
X142209910Y-104736310D01*
X142140600Y-104522992D01*
X142140599Y-104522989D01*
X142038769Y-104323137D01*
X142003841Y-104275065D01*
X142003841Y-104275064D01*
X141371671Y-104907235D01*
X141355815Y-104848058D01*
X141280115Y-104716942D01*
X141173058Y-104609885D01*
X141041942Y-104534185D01*
X140982764Y-104518328D01*
X141614934Y-103886158D01*
X141614933Y-103886157D01*
X141592317Y-103869725D01*
X141549652Y-103814395D01*
X141543673Y-103744781D01*
X141576279Y-103682986D01*
X141592318Y-103669089D01*
X141615634Y-103652149D01*
X141716078Y-103579172D01*
X141869172Y-103426078D01*
X141996433Y-103250919D01*
X142094726Y-103058009D01*
X142161630Y-102852097D01*
X142195500Y-102638254D01*
X142195500Y-102421746D01*
X142161630Y-102207903D01*
X142128178Y-102104947D01*
X142094727Y-102001993D01*
X142094726Y-102001990D01*
X142040760Y-101896078D01*
X141996433Y-101809081D01*
X141869172Y-101633922D01*
X141716078Y-101480828D01*
X141550208Y-101360316D01*
X141507545Y-101304988D01*
X141501566Y-101235375D01*
X141534172Y-101173580D01*
X141550205Y-101159686D01*
X141716078Y-101039172D01*
X141869172Y-100886078D01*
X141996433Y-100710919D01*
X142094726Y-100518009D01*
X142101259Y-100497903D01*
X142107545Y-100478557D01*
X142107545Y-100478556D01*
X142115055Y-100455440D01*
X142161630Y-100312097D01*
X142195500Y-100098254D01*
X142195500Y-99881746D01*
X142161630Y-99667903D01*
X142128178Y-99564947D01*
X142094727Y-99461993D01*
X142094726Y-99461990D01*
X142027051Y-99329172D01*
X141996433Y-99269081D01*
X141869172Y-99093922D01*
X141716078Y-98940828D01*
X141550208Y-98820316D01*
X141507545Y-98764988D01*
X141501566Y-98695375D01*
X141534172Y-98633580D01*
X141550205Y-98619686D01*
X141716078Y-98499172D01*
X141869172Y-98346078D01*
X141995832Y-98171746D01*
X179824500Y-98171746D01*
X179824500Y-98388253D01*
X179858370Y-98602098D01*
X179925272Y-98808006D01*
X179925273Y-98808009D01*
X179992949Y-98940828D01*
X180023567Y-99000919D01*
X180150828Y-99176078D01*
X180303922Y-99329172D01*
X180340958Y-99356080D01*
X180469789Y-99449682D01*
X180512454Y-99505012D01*
X180518433Y-99574626D01*
X180485827Y-99636421D01*
X180469788Y-99650318D01*
X180303922Y-99770828D01*
X180303920Y-99770830D01*
X180303919Y-99770830D01*
X180150830Y-99923919D01*
X180150830Y-99923920D01*
X180150828Y-99923922D01*
X180131280Y-99950828D01*
X180023567Y-100099080D01*
X179925273Y-100291990D01*
X179925272Y-100291993D01*
X179858370Y-100497901D01*
X179829861Y-100677901D01*
X179824500Y-100711746D01*
X179824500Y-100928254D01*
X179828277Y-100952098D01*
X179858370Y-101142098D01*
X179925272Y-101348006D01*
X179925273Y-101348009D01*
X179992949Y-101480828D01*
X180023567Y-101540919D01*
X180150828Y-101716078D01*
X180303922Y-101869172D01*
X180458190Y-101981255D01*
X180469789Y-101989682D01*
X180512454Y-102045012D01*
X180518433Y-102114626D01*
X180485827Y-102176421D01*
X180469788Y-102190318D01*
X180303922Y-102310828D01*
X180303920Y-102310830D01*
X180303919Y-102310830D01*
X180150830Y-102463919D01*
X180150830Y-102463920D01*
X180150828Y-102463922D01*
X180146492Y-102469890D01*
X180023567Y-102639080D01*
X179925273Y-102831990D01*
X179925272Y-102831993D01*
X179858370Y-103037901D01*
X179835268Y-103183760D01*
X179824500Y-103251746D01*
X179824500Y-103468254D01*
X179835864Y-103540000D01*
X179858370Y-103682098D01*
X179925272Y-103888006D01*
X179925273Y-103888009D01*
X179982395Y-104000115D01*
X180023567Y-104080919D01*
X180150828Y-104256078D01*
X180303922Y-104409172D01*
X180422054Y-104495000D01*
X180469789Y-104529682D01*
X180512454Y-104585012D01*
X180518433Y-104654626D01*
X180485827Y-104716421D01*
X180469788Y-104730318D01*
X180303922Y-104850828D01*
X180303920Y-104850830D01*
X180303919Y-104850830D01*
X180150830Y-105003919D01*
X180150830Y-105003920D01*
X180150828Y-105003922D01*
X180146492Y-105009890D01*
X180023567Y-105179080D01*
X179925273Y-105371990D01*
X179925272Y-105371993D01*
X179858370Y-105577901D01*
X179835268Y-105723760D01*
X179824500Y-105791746D01*
X179824500Y-106008254D01*
X179828277Y-106032098D01*
X179858370Y-106222098D01*
X179925272Y-106428006D01*
X179925273Y-106428009D01*
X179991718Y-106558412D01*
X180023567Y-106620919D01*
X180150828Y-106796078D01*
X180303922Y-106949172D01*
X180442321Y-107049725D01*
X180469789Y-107069682D01*
X180512454Y-107125012D01*
X180518433Y-107194626D01*
X180485827Y-107256421D01*
X180469788Y-107270318D01*
X180303922Y-107390828D01*
X180303920Y-107390830D01*
X180303919Y-107390830D01*
X180150830Y-107543919D01*
X180150830Y-107543920D01*
X180150828Y-107543922D01*
X180146492Y-107549890D01*
X180023567Y-107719080D01*
X179925273Y-107911990D01*
X179925272Y-107911993D01*
X179858370Y-108117901D01*
X179835268Y-108263760D01*
X179824500Y-108331746D01*
X179824500Y-108548254D01*
X179833180Y-108603058D01*
X179858370Y-108762098D01*
X179925272Y-108968006D01*
X179925273Y-108968009D01*
X179964469Y-109044934D01*
X180023567Y-109160919D01*
X180150828Y-109336078D01*
X180303922Y-109489172D01*
X180415996Y-109570599D01*
X180469789Y-109609682D01*
X180512454Y-109665012D01*
X180518433Y-109734626D01*
X180485827Y-109796421D01*
X180469788Y-109810318D01*
X180303922Y-109930828D01*
X180303920Y-109930830D01*
X180303919Y-109930830D01*
X180150830Y-110083919D01*
X180150830Y-110083920D01*
X180150828Y-110083922D01*
X180096174Y-110159145D01*
X180023567Y-110259080D01*
X179925273Y-110451990D01*
X179925272Y-110451993D01*
X179858370Y-110657901D01*
X179824500Y-110871746D01*
X179824500Y-111088253D01*
X179858370Y-111302098D01*
X179925272Y-111508006D01*
X179925273Y-111508009D01*
X180023567Y-111700919D01*
X180150828Y-111876078D01*
X180303922Y-112029172D01*
X180479081Y-112156433D01*
X180542322Y-112188656D01*
X180671990Y-112254726D01*
X180671993Y-112254727D01*
X180774947Y-112288178D01*
X180877903Y-112321630D01*
X181091746Y-112355500D01*
X181091747Y-112355500D01*
X181308253Y-112355500D01*
X181308254Y-112355500D01*
X181522097Y-112321630D01*
X181728009Y-112254726D01*
X181920919Y-112156433D01*
X182096078Y-112029172D01*
X182249172Y-111876078D01*
X182376433Y-111700919D01*
X182474726Y-111508009D01*
X182541630Y-111302097D01*
X182575500Y-111088254D01*
X182575500Y-110871746D01*
X182541630Y-110657903D01*
X182480575Y-110469992D01*
X182474727Y-110451993D01*
X182474726Y-110451990D01*
X182376432Y-110259080D01*
X182333993Y-110200668D01*
X182249172Y-110083922D01*
X182096078Y-109930828D01*
X181930208Y-109810316D01*
X181887545Y-109754988D01*
X181881566Y-109685375D01*
X181914172Y-109623580D01*
X181930205Y-109609686D01*
X182096078Y-109489172D01*
X182249172Y-109336078D01*
X182376433Y-109160919D01*
X182474726Y-108968009D01*
X182541630Y-108762097D01*
X182575500Y-108548254D01*
X182575500Y-108331746D01*
X182541630Y-108117903D01*
X182481259Y-107932097D01*
X182474727Y-107911993D01*
X182474726Y-107911990D01*
X182424642Y-107813697D01*
X182376433Y-107719081D01*
X182249172Y-107543922D01*
X182096078Y-107390828D01*
X181930208Y-107270316D01*
X181887545Y-107214988D01*
X181881566Y-107145375D01*
X181914172Y-107083580D01*
X181930205Y-107069686D01*
X182096078Y-106949172D01*
X182249172Y-106796078D01*
X182376433Y-106620919D01*
X182474726Y-106428009D01*
X182541630Y-106222097D01*
X182575500Y-106008254D01*
X182575500Y-105791746D01*
X182541630Y-105577903D01*
X182502967Y-105458908D01*
X182474727Y-105371993D01*
X182474726Y-105371990D01*
X182377996Y-105182149D01*
X182376433Y-105179081D01*
X182249172Y-105003922D01*
X182096078Y-104850828D01*
X181930208Y-104730316D01*
X181887545Y-104674988D01*
X181881566Y-104605375D01*
X181914172Y-104543580D01*
X181930205Y-104529686D01*
X182096078Y-104409172D01*
X182249172Y-104256078D01*
X182376433Y-104080919D01*
X182474726Y-103888009D01*
X182541630Y-103682097D01*
X182575500Y-103468254D01*
X182575500Y-103393713D01*
X195894500Y-103393713D01*
X195894500Y-103606286D01*
X195919153Y-103761942D01*
X195927754Y-103816243D01*
X195964361Y-103928908D01*
X195993444Y-104018414D01*
X196089951Y-104207820D01*
X196214890Y-104379786D01*
X196365213Y-104530109D01*
X196537182Y-104655050D01*
X196545946Y-104659516D01*
X196596742Y-104707491D01*
X196613536Y-104775312D01*
X196590998Y-104841447D01*
X196545946Y-104880484D01*
X196537182Y-104884949D01*
X196365213Y-105009890D01*
X196214890Y-105160213D01*
X196089951Y-105332179D01*
X195993444Y-105521585D01*
X195927753Y-105723760D01*
X195894500Y-105933713D01*
X195894500Y-106146286D01*
X195924432Y-106335274D01*
X195927754Y-106356243D01*
X195965011Y-106470909D01*
X195993444Y-106558414D01*
X196089951Y-106747820D01*
X196214890Y-106919786D01*
X196365213Y-107070109D01*
X196537182Y-107195050D01*
X196545946Y-107199516D01*
X196596742Y-107247491D01*
X196613536Y-107315312D01*
X196590998Y-107381447D01*
X196545946Y-107420484D01*
X196537182Y-107424949D01*
X196365213Y-107549890D01*
X196214890Y-107700213D01*
X196089951Y-107872179D01*
X195993444Y-108061585D01*
X195927753Y-108263760D01*
X195894500Y-108473713D01*
X195894500Y-108686286D01*
X195910361Y-108786432D01*
X195927754Y-108896243D01*
X195956755Y-108985500D01*
X195993444Y-109098414D01*
X196089951Y-109287820D01*
X196214890Y-109459786D01*
X196365209Y-109610105D01*
X196370106Y-109613663D01*
X196412771Y-109668994D01*
X196418750Y-109738607D01*
X196386144Y-109800402D01*
X196336229Y-109831685D01*
X196325673Y-109835183D01*
X196325663Y-109835187D01*
X196176342Y-109927289D01*
X196052289Y-110051342D01*
X195960187Y-110200663D01*
X195960186Y-110200666D01*
X195905001Y-110367203D01*
X195905001Y-110367204D01*
X195905000Y-110367204D01*
X195894500Y-110469983D01*
X195894500Y-111770001D01*
X195894501Y-111770018D01*
X195905000Y-111872796D01*
X195905001Y-111872799D01*
X195956818Y-112029169D01*
X195960186Y-112039334D01*
X196052288Y-112188656D01*
X196176344Y-112312712D01*
X196325666Y-112404814D01*
X196492203Y-112459999D01*
X196594991Y-112470500D01*
X198145008Y-112470499D01*
X198247797Y-112459999D01*
X198414334Y-112404814D01*
X198563656Y-112312712D01*
X198687712Y-112188656D01*
X198779814Y-112039334D01*
X198834999Y-111872797D01*
X198845500Y-111770009D01*
X198845499Y-110469992D01*
X198834999Y-110367203D01*
X198779814Y-110200666D01*
X198687712Y-110051344D01*
X198563656Y-109927288D01*
X198414334Y-109835186D01*
X198414333Y-109835185D01*
X198414325Y-109835182D01*
X198403773Y-109831686D01*
X198346328Y-109791913D01*
X198319506Y-109727397D01*
X198331822Y-109658621D01*
X198369903Y-109613656D01*
X198374788Y-109610107D01*
X198374788Y-109610106D01*
X198374792Y-109610104D01*
X198525104Y-109459792D01*
X198525106Y-109459788D01*
X198525109Y-109459786D01*
X198650048Y-109287820D01*
X198650047Y-109287820D01*
X198650051Y-109287816D01*
X198746557Y-109098412D01*
X198812246Y-108896243D01*
X198845500Y-108686287D01*
X198845500Y-108473713D01*
X198812246Y-108263757D01*
X198746557Y-108061588D01*
X198650051Y-107872184D01*
X198650049Y-107872181D01*
X198650048Y-107872179D01*
X198525109Y-107700213D01*
X198374786Y-107549890D01*
X198202820Y-107424951D01*
X198202115Y-107424591D01*
X198194054Y-107420485D01*
X198143259Y-107372512D01*
X198126463Y-107304692D01*
X198148999Y-107238556D01*
X198194054Y-107199515D01*
X198202816Y-107195051D01*
X198271190Y-107145375D01*
X198374786Y-107070109D01*
X198374788Y-107070106D01*
X198374792Y-107070104D01*
X198525104Y-106919792D01*
X198525106Y-106919788D01*
X198525109Y-106919786D01*
X198650048Y-106747820D01*
X198650047Y-106747820D01*
X198650051Y-106747816D01*
X198746557Y-106558412D01*
X198812246Y-106356243D01*
X198845500Y-106146287D01*
X198845500Y-105933713D01*
X198812246Y-105723757D01*
X198746557Y-105521588D01*
X198650051Y-105332184D01*
X198650049Y-105332181D01*
X198650048Y-105332179D01*
X198525109Y-105160213D01*
X198374786Y-105009890D01*
X198202820Y-104884951D01*
X198202115Y-104884591D01*
X198194054Y-104880485D01*
X198143259Y-104832512D01*
X198126463Y-104764692D01*
X198148999Y-104698556D01*
X198194054Y-104659515D01*
X198202816Y-104655051D01*
X198271190Y-104605375D01*
X198374786Y-104530109D01*
X198374788Y-104530106D01*
X198374792Y-104530104D01*
X198525104Y-104379792D01*
X198525106Y-104379788D01*
X198525109Y-104379786D01*
X198650048Y-104207820D01*
X198650047Y-104207820D01*
X198650051Y-104207816D01*
X198746557Y-104018412D01*
X198812246Y-103816243D01*
X198845500Y-103606287D01*
X198845500Y-103393713D01*
X198812246Y-103183757D01*
X198746557Y-102981588D01*
X198650051Y-102792184D01*
X198650049Y-102792181D01*
X198650048Y-102792179D01*
X198525109Y-102620213D01*
X198374786Y-102469890D01*
X198202820Y-102344951D01*
X198013414Y-102248444D01*
X198013413Y-102248443D01*
X198013412Y-102248443D01*
X197811243Y-102182754D01*
X197811241Y-102182753D01*
X197811240Y-102182753D01*
X197649957Y-102157208D01*
X197601287Y-102149500D01*
X197138713Y-102149500D01*
X197090042Y-102157208D01*
X196928760Y-102182753D01*
X196726585Y-102248444D01*
X196537179Y-102344951D01*
X196365213Y-102469890D01*
X196214890Y-102620213D01*
X196089951Y-102792179D01*
X195993444Y-102981585D01*
X195927753Y-103183760D01*
X195894500Y-103393713D01*
X182575500Y-103393713D01*
X182575500Y-103251746D01*
X182541630Y-103037903D01*
X182479896Y-102847903D01*
X182474727Y-102831993D01*
X182474726Y-102831990D01*
X182424642Y-102733697D01*
X182376433Y-102639081D01*
X182249172Y-102463922D01*
X182096078Y-102310828D01*
X181930208Y-102190316D01*
X181887545Y-102134988D01*
X181881566Y-102065375D01*
X181914172Y-102003580D01*
X181930205Y-101989686D01*
X182096078Y-101869172D01*
X182249172Y-101716078D01*
X182376433Y-101540919D01*
X182474726Y-101348009D01*
X182541630Y-101142097D01*
X182575500Y-100928254D01*
X182575500Y-100711746D01*
X182541630Y-100497903D01*
X182479896Y-100307903D01*
X182474727Y-100291993D01*
X182474726Y-100291990D01*
X182424642Y-100193697D01*
X182376433Y-100099081D01*
X182249172Y-99923922D01*
X182096078Y-99770828D01*
X181930208Y-99650316D01*
X181887545Y-99594988D01*
X181881566Y-99525375D01*
X181914172Y-99463580D01*
X181930205Y-99449686D01*
X182096078Y-99329172D01*
X182249172Y-99176078D01*
X182376433Y-99000919D01*
X182474726Y-98808009D01*
X182541630Y-98602097D01*
X182575500Y-98388254D01*
X182575500Y-98171746D01*
X182541630Y-97957903D01*
X182474726Y-97751991D01*
X182474726Y-97751990D01*
X182424642Y-97653697D01*
X182376433Y-97559081D01*
X182249172Y-97383922D01*
X182096078Y-97230828D01*
X181920919Y-97103567D01*
X181906918Y-97096433D01*
X181728009Y-97005273D01*
X181728006Y-97005272D01*
X181522098Y-96938370D01*
X181415175Y-96921435D01*
X181308254Y-96904500D01*
X181091746Y-96904500D01*
X181020465Y-96915790D01*
X180877901Y-96938370D01*
X180671993Y-97005272D01*
X180671990Y-97005273D01*
X180479080Y-97103567D01*
X180422037Y-97145012D01*
X180303922Y-97230828D01*
X180303920Y-97230830D01*
X180303919Y-97230830D01*
X180150830Y-97383919D01*
X180150830Y-97383920D01*
X180150828Y-97383922D01*
X180131280Y-97410828D01*
X180023567Y-97559080D01*
X179925273Y-97751990D01*
X179925272Y-97751993D01*
X179858370Y-97957901D01*
X179824500Y-98171746D01*
X141995832Y-98171746D01*
X141996433Y-98170919D01*
X142094726Y-97978009D01*
X142161630Y-97772097D01*
X142195500Y-97558254D01*
X142195500Y-97341746D01*
X142161630Y-97127903D01*
X142094726Y-96921991D01*
X142094726Y-96921990D01*
X141996432Y-96729080D01*
X141869172Y-96553922D01*
X141716078Y-96400828D01*
X141550208Y-96280316D01*
X141507545Y-96224988D01*
X141501566Y-96155375D01*
X141534172Y-96093580D01*
X141550205Y-96079686D01*
X141716078Y-95959172D01*
X141869172Y-95806078D01*
X141996433Y-95630919D01*
X142094726Y-95438009D01*
X142161630Y-95232097D01*
X142195500Y-95018254D01*
X142195500Y-94801746D01*
X142161630Y-94587903D01*
X142094726Y-94381991D01*
X142094726Y-94381990D01*
X141996432Y-94189080D01*
X141869172Y-94013922D01*
X141716078Y-93860828D01*
X141550208Y-93740316D01*
X141507545Y-93684988D01*
X141501566Y-93615375D01*
X141534172Y-93553580D01*
X141550205Y-93539686D01*
X141716078Y-93419172D01*
X141869172Y-93266078D01*
X141996433Y-93090919D01*
X142094726Y-92898009D01*
X142161630Y-92692097D01*
X142195500Y-92478254D01*
X142195500Y-92261746D01*
X142161630Y-92047903D01*
X142094726Y-91841991D01*
X142094726Y-91841990D01*
X141996432Y-91649080D01*
X141869172Y-91473922D01*
X141716078Y-91320828D01*
X141550208Y-91200316D01*
X141507545Y-91144988D01*
X141501566Y-91075375D01*
X141534172Y-91013580D01*
X141550205Y-90999686D01*
X141716078Y-90879172D01*
X141869172Y-90726078D01*
X141996433Y-90550919D01*
X142094726Y-90358009D01*
X142161630Y-90152097D01*
X142195500Y-89938254D01*
X142195500Y-89721746D01*
X142161630Y-89507903D01*
X142094726Y-89301991D01*
X142094726Y-89301990D01*
X141996432Y-89109080D01*
X141984881Y-89093181D01*
X141869172Y-88933922D01*
X141716078Y-88780828D01*
X141550208Y-88660316D01*
X141507545Y-88604988D01*
X141501566Y-88535375D01*
X141534172Y-88473580D01*
X141550205Y-88459686D01*
X141716078Y-88339172D01*
X141869172Y-88186078D01*
X141996433Y-88010919D01*
X142094726Y-87818009D01*
X142161630Y-87612097D01*
X142195500Y-87398254D01*
X142195500Y-87181746D01*
X142161630Y-86967903D01*
X142094726Y-86761991D01*
X142094726Y-86761990D01*
X141996432Y-86569080D01*
X141869172Y-86393922D01*
X141716078Y-86240828D01*
X141550208Y-86120316D01*
X141507545Y-86064988D01*
X141501566Y-85995375D01*
X141534172Y-85933580D01*
X141550205Y-85919686D01*
X141716078Y-85799172D01*
X141869172Y-85646078D01*
X141996433Y-85470919D01*
X142094726Y-85278009D01*
X142161630Y-85072097D01*
X142195500Y-84858254D01*
X142195500Y-84641746D01*
X142161630Y-84427903D01*
X142128178Y-84324947D01*
X142094727Y-84221993D01*
X142094726Y-84221990D01*
X142044642Y-84123697D01*
X141996433Y-84029081D01*
X141869172Y-83853922D01*
X141716078Y-83700828D01*
X141550208Y-83580316D01*
X141507545Y-83524988D01*
X141501566Y-83455375D01*
X141534172Y-83393580D01*
X141550205Y-83379686D01*
X141716078Y-83259172D01*
X141869172Y-83106078D01*
X141996433Y-82930919D01*
X142094726Y-82738009D01*
X142161630Y-82532097D01*
X142195500Y-82318254D01*
X142195500Y-82101746D01*
X142161630Y-81887903D01*
X142097334Y-81690018D01*
X142094727Y-81681993D01*
X142094726Y-81681990D01*
X141999415Y-81494934D01*
X141996433Y-81489081D01*
X141869172Y-81313922D01*
X141716078Y-81160828D01*
X141550208Y-81040316D01*
X141507545Y-80984988D01*
X141501566Y-80915375D01*
X141534172Y-80853580D01*
X141550205Y-80839686D01*
X141716078Y-80719172D01*
X141869172Y-80566078D01*
X141996433Y-80390919D01*
X142094726Y-80198009D01*
X142161630Y-79992097D01*
X142195500Y-79778254D01*
X142195500Y-79561746D01*
X142193508Y-79549172D01*
X142185677Y-79499725D01*
X142161630Y-79347903D01*
X142094726Y-79141991D01*
X142094726Y-79141990D01*
X141996432Y-78949080D01*
X141994926Y-78947007D01*
X141869172Y-78773922D01*
X141716078Y-78620828D01*
X141550208Y-78500316D01*
X141533033Y-78478042D01*
X141513426Y-78457867D01*
X141511982Y-78450742D01*
X141507545Y-78444988D01*
X141505137Y-78416962D01*
X141499551Y-78389389D01*
X141502187Y-78382616D01*
X141501566Y-78375375D01*
X141514693Y-78350496D01*
X141524900Y-78324280D01*
X141532342Y-78317046D01*
X141534172Y-78313580D01*
X141550205Y-78299686D01*
X141566496Y-78287850D01*
X156565000Y-78287850D01*
X156565000Y-78512149D01*
X156600089Y-78733689D01*
X156669399Y-78947007D01*
X156669400Y-78947010D01*
X156771231Y-79146863D01*
X156806157Y-79194933D01*
X156806158Y-79194934D01*
X157438328Y-78562763D01*
X157454185Y-78621942D01*
X157529885Y-78753058D01*
X157636942Y-78860115D01*
X157768058Y-78935815D01*
X157827235Y-78951671D01*
X157195064Y-79583841D01*
X157243137Y-79618769D01*
X157442989Y-79720599D01*
X157442992Y-79720600D01*
X157656310Y-79789910D01*
X157877851Y-79825000D01*
X158102149Y-79825000D01*
X158323689Y-79789910D01*
X158537007Y-79720600D01*
X158537010Y-79720599D01*
X158736863Y-79618768D01*
X158784933Y-79583842D01*
X158784933Y-79583841D01*
X158152763Y-78951671D01*
X158211942Y-78935815D01*
X158343058Y-78860115D01*
X158450115Y-78753058D01*
X158525815Y-78621942D01*
X158541671Y-78562763D01*
X159173841Y-79194933D01*
X159173842Y-79194933D01*
X159208768Y-79146863D01*
X159310599Y-78947010D01*
X159310600Y-78947007D01*
X159379910Y-78733689D01*
X159415000Y-78512149D01*
X159415000Y-78287850D01*
X159379910Y-78066310D01*
X159310600Y-77852992D01*
X159310599Y-77852989D01*
X159208769Y-77653137D01*
X159173841Y-77605065D01*
X159173841Y-77605064D01*
X158541671Y-78237235D01*
X158525815Y-78178058D01*
X158450115Y-78046942D01*
X158343058Y-77939885D01*
X158211942Y-77864185D01*
X158152764Y-77848328D01*
X158784934Y-77216158D01*
X158784933Y-77216157D01*
X158762317Y-77199725D01*
X158719652Y-77144395D01*
X158713673Y-77074781D01*
X158746279Y-77012986D01*
X158762318Y-76999089D01*
X158886078Y-76909172D01*
X159039172Y-76756078D01*
X159166433Y-76580919D01*
X159264726Y-76388009D01*
X159331630Y-76182097D01*
X159365500Y-75968254D01*
X159365500Y-75751746D01*
X159331630Y-75537903D01*
X159264726Y-75331991D01*
X159264726Y-75331990D01*
X159166432Y-75139080D01*
X159132221Y-75091993D01*
X159039172Y-74963922D01*
X158886078Y-74810828D01*
X158720208Y-74690316D01*
X158677545Y-74634988D01*
X158671566Y-74565375D01*
X158704172Y-74503580D01*
X158720205Y-74489686D01*
X158886078Y-74369172D01*
X159039172Y-74216078D01*
X159166433Y-74040919D01*
X159264726Y-73848009D01*
X159331630Y-73642097D01*
X159365500Y-73428254D01*
X159365500Y-73211746D01*
X159331630Y-72997903D01*
X159264726Y-72791991D01*
X159264726Y-72791990D01*
X159166432Y-72599080D01*
X159132221Y-72551993D01*
X159039172Y-72423922D01*
X158886078Y-72270828D01*
X158720208Y-72150316D01*
X158677545Y-72094988D01*
X158671566Y-72025375D01*
X158704172Y-71963580D01*
X158720205Y-71949686D01*
X158886078Y-71829172D01*
X159039172Y-71676078D01*
X159166433Y-71500919D01*
X159264726Y-71308009D01*
X159331630Y-71102097D01*
X159365500Y-70888254D01*
X159365500Y-70671746D01*
X159331630Y-70457903D01*
X159264726Y-70251991D01*
X159264726Y-70251990D01*
X159166432Y-70059080D01*
X159132221Y-70011993D01*
X159039172Y-69883922D01*
X158886078Y-69730828D01*
X158710919Y-69603567D01*
X158518009Y-69505273D01*
X158518006Y-69505272D01*
X158312098Y-69438370D01*
X158205175Y-69421435D01*
X158098254Y-69404500D01*
X157881746Y-69404500D01*
X157810465Y-69415790D01*
X157667901Y-69438370D01*
X157461993Y-69505272D01*
X157461990Y-69505273D01*
X157269080Y-69603567D01*
X157172717Y-69673580D01*
X157093922Y-69730828D01*
X157093920Y-69730830D01*
X157093919Y-69730830D01*
X156940830Y-69883919D01*
X156940830Y-69883920D01*
X156940828Y-69883922D01*
X156886174Y-69959145D01*
X156813567Y-70059080D01*
X156715273Y-70251990D01*
X156715272Y-70251993D01*
X156648370Y-70457901D01*
X156614500Y-70671746D01*
X156614500Y-70888253D01*
X156648370Y-71102098D01*
X156715272Y-71308006D01*
X156715273Y-71308009D01*
X156813567Y-71500919D01*
X156940828Y-71676078D01*
X157093922Y-71829172D01*
X157231560Y-71929172D01*
X157259789Y-71949682D01*
X157302454Y-72005012D01*
X157308433Y-72074626D01*
X157275827Y-72136421D01*
X157259788Y-72150318D01*
X157093922Y-72270828D01*
X157093920Y-72270830D01*
X157093919Y-72270830D01*
X156940830Y-72423919D01*
X156940830Y-72423920D01*
X156940828Y-72423922D01*
X156886174Y-72499145D01*
X156813567Y-72599080D01*
X156715273Y-72791990D01*
X156715272Y-72791993D01*
X156648370Y-72997901D01*
X156614500Y-73211746D01*
X156614500Y-73428253D01*
X156648370Y-73642098D01*
X156715272Y-73848006D01*
X156715273Y-73848009D01*
X156813567Y-74040919D01*
X156940828Y-74216078D01*
X157093922Y-74369172D01*
X157231560Y-74469172D01*
X157259789Y-74489682D01*
X157302454Y-74545012D01*
X157308433Y-74614626D01*
X157275827Y-74676421D01*
X157259788Y-74690318D01*
X157093922Y-74810828D01*
X157093920Y-74810830D01*
X157093919Y-74810830D01*
X156940830Y-74963919D01*
X156940830Y-74963920D01*
X156940828Y-74963922D01*
X156886174Y-75039145D01*
X156813567Y-75139080D01*
X156715273Y-75331990D01*
X156715272Y-75331993D01*
X156648370Y-75537901D01*
X156614500Y-75751746D01*
X156614500Y-75968253D01*
X156648370Y-76182098D01*
X156715272Y-76388006D01*
X156715273Y-76388009D01*
X156813567Y-76580919D01*
X156940828Y-76756078D01*
X157093922Y-76909172D01*
X157217682Y-76999089D01*
X157260347Y-77054419D01*
X157266326Y-77124033D01*
X157233720Y-77185828D01*
X157217681Y-77199725D01*
X157195065Y-77216156D01*
X157195065Y-77216158D01*
X157827236Y-77848328D01*
X157768058Y-77864185D01*
X157636942Y-77939885D01*
X157529885Y-78046942D01*
X157454185Y-78178058D01*
X157438328Y-78237235D01*
X156806158Y-77605065D01*
X156806156Y-77605065D01*
X156771232Y-77653134D01*
X156771230Y-77653138D01*
X156669400Y-77852989D01*
X156669399Y-77852992D01*
X156600089Y-78066310D01*
X156565000Y-78287850D01*
X141566496Y-78287850D01*
X141716078Y-78179172D01*
X141869172Y-78026078D01*
X141996433Y-77850919D01*
X142094726Y-77658009D01*
X142161630Y-77452097D01*
X142195500Y-77238254D01*
X142195500Y-77021746D01*
X142161630Y-76807903D01*
X142094726Y-76601991D01*
X142094726Y-76601990D01*
X141996432Y-76409080D01*
X141981121Y-76388006D01*
X141869172Y-76233922D01*
X141716078Y-76080828D01*
X141550208Y-75960316D01*
X141507545Y-75904988D01*
X141501566Y-75835375D01*
X141534172Y-75773580D01*
X141550205Y-75759686D01*
X141716078Y-75639172D01*
X141869172Y-75486078D01*
X141996433Y-75310919D01*
X142094726Y-75118009D01*
X142161630Y-74912097D01*
X142195500Y-74698254D01*
X142195500Y-74481746D01*
X142161630Y-74267903D01*
X142094726Y-74061991D01*
X142094726Y-74061990D01*
X141996432Y-73869080D01*
X141981121Y-73848006D01*
X141869172Y-73693922D01*
X141716078Y-73540828D01*
X141550208Y-73420316D01*
X141507545Y-73364988D01*
X141501566Y-73295375D01*
X141534172Y-73233580D01*
X141550205Y-73219686D01*
X141716078Y-73099172D01*
X141869172Y-72946078D01*
X141996433Y-72770919D01*
X142094726Y-72578009D01*
X142161630Y-72372097D01*
X142195500Y-72158254D01*
X142195500Y-71941746D01*
X142161630Y-71727903D01*
X142094726Y-71521991D01*
X142094726Y-71521990D01*
X142036647Y-71408006D01*
X141996433Y-71329081D01*
X141869172Y-71153922D01*
X141716078Y-71000828D01*
X141540919Y-70873567D01*
X141352100Y-70777358D01*
X141352099Y-70777358D01*
X141348008Y-70775273D01*
X141348006Y-70775272D01*
X141142098Y-70708370D01*
X141035175Y-70691435D01*
X140928254Y-70674500D01*
X140711746Y-70674500D01*
X140640465Y-70685790D01*
X140497901Y-70708370D01*
X140291993Y-70775272D01*
X140291990Y-70775273D01*
X140099080Y-70873567D01*
X139999145Y-70946174D01*
X139923922Y-71000828D01*
X139923920Y-71000830D01*
X139923919Y-71000830D01*
X139770830Y-71153919D01*
X139770830Y-71153920D01*
X139770828Y-71153922D01*
X139735827Y-71202097D01*
X139643567Y-71329080D01*
X139545273Y-71521990D01*
X139545272Y-71521993D01*
X139478370Y-71727901D01*
X139470739Y-71776080D01*
X139444500Y-71941746D01*
X139444500Y-72158254D01*
X139459082Y-72250318D01*
X139478370Y-72372098D01*
X139545272Y-72578006D01*
X139545273Y-72578009D01*
X139613637Y-72712179D01*
X139643567Y-72770919D01*
X139770828Y-72946078D01*
X139923922Y-73099172D01*
X140078190Y-73211255D01*
X140089789Y-73219682D01*
X140132454Y-73275012D01*
X140138433Y-73344626D01*
X140105827Y-73406421D01*
X140089788Y-73420318D01*
X139923922Y-73540828D01*
X139923920Y-73540830D01*
X139923919Y-73540830D01*
X139770830Y-73693919D01*
X139770830Y-73693920D01*
X139770828Y-73693922D01*
X139740083Y-73736239D01*
X139643567Y-73869080D01*
X139545273Y-74061990D01*
X139545272Y-74061993D01*
X139478370Y-74267901D01*
X139470739Y-74316080D01*
X139444500Y-74481746D01*
X139444500Y-74698254D01*
X139459082Y-74790318D01*
X139478370Y-74912098D01*
X139545272Y-75118006D01*
X139545273Y-75118009D01*
X139613637Y-75252179D01*
X139643567Y-75310919D01*
X139770828Y-75486078D01*
X139923922Y-75639172D01*
X140078190Y-75751255D01*
X140089789Y-75759682D01*
X140132454Y-75815012D01*
X140138433Y-75884626D01*
X140105827Y-75946421D01*
X140089788Y-75960318D01*
X139923922Y-76080828D01*
X139923920Y-76080830D01*
X139923919Y-76080830D01*
X139770830Y-76233919D01*
X139770830Y-76233920D01*
X139770828Y-76233922D01*
X139740083Y-76276239D01*
X139643567Y-76409080D01*
X139545273Y-76601990D01*
X139545272Y-76601993D01*
X139478370Y-76807901D01*
X139470739Y-76856080D01*
X139444500Y-77021746D01*
X139444500Y-77238254D01*
X139459082Y-77330318D01*
X139478370Y-77452098D01*
X139545272Y-77658006D01*
X139545273Y-77658009D01*
X139636934Y-77837901D01*
X139643567Y-77850919D01*
X139770828Y-78026078D01*
X139923922Y-78179172D01*
X140073504Y-78287850D01*
X140089789Y-78299682D01*
X140132454Y-78355012D01*
X140138433Y-78424626D01*
X140105827Y-78486421D01*
X140089788Y-78500318D01*
X139923922Y-78620828D01*
X139923920Y-78620830D01*
X139923919Y-78620830D01*
X139770830Y-78773919D01*
X139770830Y-78773920D01*
X139770828Y-78773922D01*
X139759940Y-78788908D01*
X139643567Y-78949080D01*
X139545273Y-79141990D01*
X139545272Y-79141993D01*
X139478370Y-79347901D01*
X139449511Y-79530107D01*
X139444500Y-79561746D01*
X139444500Y-79778254D01*
X139459082Y-79870318D01*
X139478370Y-79992098D01*
X139545272Y-80198006D01*
X139545273Y-80198009D01*
X139621159Y-80346942D01*
X139643567Y-80390919D01*
X139770828Y-80566078D01*
X139923922Y-80719172D01*
X140078190Y-80831255D01*
X140089789Y-80839682D01*
X140132454Y-80895012D01*
X140138433Y-80964626D01*
X140105827Y-81026421D01*
X140089788Y-81040318D01*
X139923922Y-81160828D01*
X139923920Y-81160830D01*
X139923919Y-81160830D01*
X139770830Y-81313919D01*
X139770830Y-81313920D01*
X139770828Y-81313922D01*
X139735827Y-81362097D01*
X139643567Y-81489080D01*
X139545273Y-81681990D01*
X139545272Y-81681993D01*
X139478370Y-81887901D01*
X139470739Y-81936080D01*
X139444500Y-82101746D01*
X139444500Y-82318254D01*
X139454280Y-82379999D01*
X139478370Y-82532098D01*
X139545272Y-82738006D01*
X139545273Y-82738009D01*
X139643567Y-82930919D01*
X139770828Y-83106078D01*
X139923922Y-83259172D01*
X140078190Y-83371255D01*
X140089789Y-83379682D01*
X140132454Y-83435012D01*
X140138433Y-83504626D01*
X140105827Y-83566421D01*
X140089788Y-83580318D01*
X139923922Y-83700828D01*
X139923920Y-83700830D01*
X139923919Y-83700830D01*
X139770830Y-83853919D01*
X139770830Y-83853920D01*
X139770828Y-83853922D01*
X139721982Y-83921153D01*
X139643567Y-84029080D01*
X139545273Y-84221990D01*
X139545272Y-84221993D01*
X139478370Y-84427901D01*
X139444500Y-84641746D01*
X139444500Y-84858253D01*
X139478370Y-85072098D01*
X139545272Y-85278006D01*
X139545273Y-85278009D01*
X139643567Y-85470919D01*
X139770828Y-85646078D01*
X139923922Y-85799172D01*
X140078190Y-85911255D01*
X140089789Y-85919682D01*
X140132454Y-85975012D01*
X140138433Y-86044626D01*
X140105827Y-86106421D01*
X140089788Y-86120318D01*
X139923922Y-86240828D01*
X139923920Y-86240830D01*
X139923919Y-86240830D01*
X139770830Y-86393919D01*
X139770830Y-86393920D01*
X139770828Y-86393922D01*
X139716174Y-86469145D01*
X139643567Y-86569080D01*
X139545273Y-86761990D01*
X139545272Y-86761993D01*
X139478370Y-86967901D01*
X139444500Y-87181746D01*
X139444500Y-87398253D01*
X139478370Y-87612098D01*
X139545272Y-87818006D01*
X139545273Y-87818009D01*
X139597831Y-87921158D01*
X139643567Y-88010919D01*
X139770828Y-88186078D01*
X139923922Y-88339172D01*
X140042489Y-88425316D01*
X140089789Y-88459682D01*
X140132454Y-88515012D01*
X140138433Y-88584626D01*
X140105827Y-88646421D01*
X140089788Y-88660318D01*
X139923922Y-88780828D01*
X139923920Y-88780830D01*
X139923919Y-88780830D01*
X139770829Y-88933920D01*
X139665868Y-89078386D01*
X139610537Y-89121051D01*
X139565550Y-89129500D01*
X138671519Y-89129500D01*
X138604480Y-89109815D01*
X138583838Y-89093181D01*
X117946546Y-68455888D01*
X117946545Y-68455887D01*
X117831807Y-68379222D01*
X117704332Y-68326421D01*
X117704322Y-68326418D01*
X117568996Y-68299500D01*
X117568994Y-68299500D01*
X117568993Y-68299500D01*
X98341519Y-68299500D01*
X98274480Y-68279815D01*
X98253838Y-68263181D01*
X97993405Y-68002747D01*
X97946545Y-67955887D01*
X97894562Y-67921153D01*
X126199500Y-67921153D01*
X126199500Y-68078846D01*
X126230261Y-68233489D01*
X126230264Y-68233501D01*
X126290602Y-68379172D01*
X126290609Y-68379185D01*
X126378210Y-68510288D01*
X126378213Y-68510292D01*
X126489707Y-68621786D01*
X126489711Y-68621789D01*
X126620814Y-68709390D01*
X126620827Y-68709397D01*
X126766498Y-68769735D01*
X126766503Y-68769737D01*
X126921153Y-68800499D01*
X126921156Y-68800500D01*
X126921158Y-68800500D01*
X127078844Y-68800500D01*
X127078845Y-68800499D01*
X127233497Y-68769737D01*
X127308963Y-68738478D01*
X127377864Y-68709939D01*
X127425316Y-68700500D01*
X133074684Y-68700500D01*
X133122136Y-68709939D01*
X133266498Y-68769735D01*
X133266503Y-68769737D01*
X133421153Y-68800499D01*
X133421156Y-68800500D01*
X133421158Y-68800500D01*
X133578844Y-68800500D01*
X133578845Y-68800499D01*
X133733497Y-68769737D01*
X133879179Y-68709394D01*
X134010289Y-68621789D01*
X134121789Y-68510289D01*
X134209394Y-68379179D01*
X134269737Y-68233497D01*
X134270085Y-68231746D01*
X176744500Y-68231746D01*
X176744500Y-68448253D01*
X176778370Y-68662098D01*
X176845272Y-68868006D01*
X176845273Y-68868009D01*
X176943567Y-69060919D01*
X177070828Y-69236078D01*
X177223922Y-69389172D01*
X177363839Y-69490828D01*
X177389789Y-69509682D01*
X177432454Y-69565012D01*
X177438433Y-69634626D01*
X177405827Y-69696421D01*
X177389788Y-69710318D01*
X177223922Y-69830828D01*
X177223920Y-69830830D01*
X177223919Y-69830830D01*
X177070830Y-69983919D01*
X177070830Y-69983920D01*
X177070828Y-69983922D01*
X177050435Y-70011991D01*
X176943567Y-70159080D01*
X176845273Y-70351990D01*
X176845272Y-70351993D01*
X176778370Y-70557901D01*
X176744500Y-70771746D01*
X176744500Y-70988253D01*
X176778370Y-71202098D01*
X176845272Y-71408006D01*
X176845273Y-71408009D01*
X176892614Y-71500919D01*
X176943567Y-71600919D01*
X177070828Y-71776078D01*
X177223922Y-71929172D01*
X177356334Y-72025375D01*
X177389789Y-72049682D01*
X177432454Y-72105012D01*
X177438433Y-72174626D01*
X177405827Y-72236421D01*
X177389788Y-72250318D01*
X177223922Y-72370828D01*
X177223920Y-72370830D01*
X177223919Y-72370830D01*
X177070830Y-72523919D01*
X177070830Y-72523920D01*
X177070828Y-72523922D01*
X177050435Y-72551991D01*
X176943567Y-72699080D01*
X176845273Y-72891990D01*
X176845272Y-72891993D01*
X176778370Y-73097901D01*
X176744500Y-73311746D01*
X176744500Y-73528253D01*
X176778370Y-73742098D01*
X176845272Y-73948006D01*
X176845273Y-73948009D01*
X176892614Y-74040919D01*
X176943567Y-74140919D01*
X177070828Y-74316078D01*
X177223922Y-74469172D01*
X177356334Y-74565375D01*
X177389789Y-74589682D01*
X177432454Y-74645012D01*
X177438433Y-74714626D01*
X177405827Y-74776421D01*
X177389788Y-74790318D01*
X177223922Y-74910828D01*
X177223920Y-74910830D01*
X177223919Y-74910830D01*
X177070830Y-75063919D01*
X177070830Y-75063920D01*
X177070828Y-75063922D01*
X177050435Y-75091991D01*
X176943567Y-75239080D01*
X176845273Y-75431990D01*
X176845272Y-75431993D01*
X176778370Y-75637901D01*
X176744500Y-75851746D01*
X176744500Y-76068253D01*
X176778370Y-76282098D01*
X176845272Y-76488006D01*
X176845273Y-76488009D01*
X176892614Y-76580919D01*
X176943567Y-76680919D01*
X177070828Y-76856078D01*
X177223922Y-77009172D01*
X177314225Y-77074781D01*
X177389789Y-77129682D01*
X177432454Y-77185012D01*
X177438433Y-77254626D01*
X177405827Y-77316421D01*
X177389788Y-77330318D01*
X177223922Y-77450828D01*
X177223920Y-77450830D01*
X177223919Y-77450830D01*
X177070830Y-77603919D01*
X177070830Y-77603920D01*
X177070828Y-77603922D01*
X177031534Y-77658006D01*
X176943567Y-77779080D01*
X176845273Y-77971990D01*
X176845272Y-77971993D01*
X176778370Y-78177901D01*
X176744500Y-78391746D01*
X176744500Y-78608253D01*
X176778370Y-78822098D01*
X176845272Y-79028006D01*
X176845273Y-79028009D01*
X176903350Y-79141990D01*
X176943567Y-79220919D01*
X177070828Y-79396078D01*
X177223922Y-79549172D01*
X177319714Y-79618769D01*
X177389789Y-79669682D01*
X177432454Y-79725012D01*
X177438433Y-79794626D01*
X177405827Y-79856421D01*
X177389788Y-79870318D01*
X177223922Y-79990828D01*
X177223920Y-79990830D01*
X177223919Y-79990830D01*
X177070830Y-80143919D01*
X177070830Y-80143920D01*
X177070828Y-80143922D01*
X177056106Y-80164185D01*
X176943567Y-80319080D01*
X176845273Y-80511990D01*
X176845272Y-80511993D01*
X176778370Y-80717901D01*
X176744500Y-80931746D01*
X176744500Y-81148253D01*
X176778370Y-81362098D01*
X176845272Y-81568006D01*
X176845273Y-81568009D01*
X176903350Y-81681990D01*
X176943567Y-81760919D01*
X177070828Y-81936078D01*
X177223922Y-82089172D01*
X177399081Y-82216433D01*
X177493697Y-82264642D01*
X177591990Y-82314726D01*
X177591993Y-82314727D01*
X177694947Y-82348178D01*
X177797903Y-82381630D01*
X178011746Y-82415500D01*
X178011747Y-82415500D01*
X178228253Y-82415500D01*
X178228254Y-82415500D01*
X178442097Y-82381630D01*
X178648009Y-82314726D01*
X178840919Y-82216433D01*
X179016078Y-82089172D01*
X179169172Y-81936078D01*
X179296433Y-81760919D01*
X179394726Y-81568009D01*
X179461630Y-81362097D01*
X179495500Y-81148254D01*
X179495500Y-80931746D01*
X179461630Y-80717903D01*
X179419374Y-80587850D01*
X179394727Y-80511993D01*
X179394726Y-80511990D01*
X179332564Y-80389992D01*
X179296433Y-80319081D01*
X179169172Y-80143922D01*
X179016078Y-79990828D01*
X178850208Y-79870316D01*
X178807545Y-79814988D01*
X178801566Y-79745375D01*
X178834172Y-79683580D01*
X178850205Y-79669686D01*
X179016078Y-79549172D01*
X179169172Y-79396078D01*
X179296433Y-79220919D01*
X179394726Y-79028009D01*
X179461630Y-78822097D01*
X179495500Y-78608254D01*
X179495500Y-78391746D01*
X179461630Y-78177903D01*
X179419079Y-78046942D01*
X179394727Y-77971993D01*
X179394726Y-77971990D01*
X179303109Y-77792184D01*
X179296433Y-77779081D01*
X179169172Y-77603922D01*
X179016078Y-77450828D01*
X178850208Y-77330316D01*
X178807545Y-77274988D01*
X178801566Y-77205375D01*
X178834172Y-77143580D01*
X178850205Y-77129686D01*
X179016078Y-77009172D01*
X179169172Y-76856078D01*
X179296433Y-76680919D01*
X179394726Y-76488009D01*
X179461630Y-76282097D01*
X179495500Y-76068254D01*
X179495500Y-75851746D01*
X179461630Y-75637903D01*
X179420640Y-75511746D01*
X179394727Y-75431993D01*
X179394726Y-75431990D01*
X179303109Y-75252184D01*
X179296433Y-75239081D01*
X179169172Y-75063922D01*
X179016078Y-74910828D01*
X178850208Y-74790316D01*
X178807545Y-74734988D01*
X178801566Y-74665375D01*
X178834172Y-74603580D01*
X178850205Y-74589686D01*
X179016078Y-74469172D01*
X179169172Y-74316078D01*
X179296433Y-74140919D01*
X179394726Y-73948009D01*
X179461630Y-73742097D01*
X179495500Y-73528254D01*
X179495500Y-73313713D01*
X194894500Y-73313713D01*
X194894500Y-73526287D01*
X194904534Y-73589644D01*
X194921050Y-73693920D01*
X194927754Y-73736243D01*
X194929656Y-73742098D01*
X194993444Y-73938414D01*
X195089951Y-74127820D01*
X195214890Y-74299786D01*
X195365213Y-74450109D01*
X195537182Y-74575050D01*
X195545946Y-74579516D01*
X195596742Y-74627491D01*
X195613536Y-74695312D01*
X195590998Y-74761447D01*
X195545946Y-74800484D01*
X195537182Y-74804949D01*
X195365213Y-74929890D01*
X195214890Y-75080213D01*
X195089951Y-75252179D01*
X194993444Y-75441585D01*
X194927753Y-75643760D01*
X194914371Y-75728253D01*
X194894500Y-75853713D01*
X194894500Y-76066287D01*
X194904534Y-76129644D01*
X194921050Y-76233920D01*
X194927754Y-76276243D01*
X194929656Y-76282098D01*
X194993444Y-76478414D01*
X195089951Y-76667820D01*
X195214890Y-76839786D01*
X195365213Y-76990109D01*
X195537182Y-77115050D01*
X195545946Y-77119516D01*
X195596742Y-77167491D01*
X195613536Y-77235312D01*
X195590998Y-77301447D01*
X195545946Y-77340484D01*
X195537182Y-77344949D01*
X195365213Y-77469890D01*
X195214890Y-77620213D01*
X195089951Y-77792179D01*
X194993444Y-77981585D01*
X194927753Y-78183760D01*
X194914371Y-78268253D01*
X194894500Y-78393713D01*
X194894500Y-78606287D01*
X194896980Y-78621942D01*
X194923424Y-78788908D01*
X194927754Y-78816243D01*
X194966605Y-78935815D01*
X194993444Y-79018414D01*
X195089951Y-79207820D01*
X195214890Y-79379786D01*
X195365209Y-79530105D01*
X195370106Y-79533663D01*
X195412771Y-79588994D01*
X195418750Y-79658607D01*
X195386144Y-79720402D01*
X195336229Y-79751685D01*
X195325673Y-79755183D01*
X195325663Y-79755187D01*
X195176342Y-79847289D01*
X195052289Y-79971342D01*
X194960187Y-80120663D01*
X194960185Y-80120668D01*
X194949475Y-80152989D01*
X194905001Y-80287203D01*
X194905001Y-80287204D01*
X194905000Y-80287204D01*
X194894500Y-80389983D01*
X194894500Y-81690001D01*
X194894501Y-81690018D01*
X194905000Y-81792796D01*
X194905001Y-81792799D01*
X194935170Y-81883841D01*
X194960186Y-81959334D01*
X195052288Y-82108656D01*
X195176344Y-82232712D01*
X195325666Y-82324814D01*
X195492203Y-82379999D01*
X195594991Y-82390500D01*
X197145008Y-82390499D01*
X197247797Y-82379999D01*
X197414334Y-82324814D01*
X197563656Y-82232712D01*
X197687712Y-82108656D01*
X197779814Y-81959334D01*
X197834999Y-81792797D01*
X197845500Y-81690009D01*
X197845499Y-80389992D01*
X197834999Y-80287203D01*
X197779814Y-80120666D01*
X197687712Y-79971344D01*
X197563656Y-79847288D01*
X197470631Y-79789910D01*
X197414336Y-79755187D01*
X197414325Y-79755182D01*
X197403773Y-79751686D01*
X197346328Y-79711913D01*
X197319506Y-79647397D01*
X197331822Y-79578621D01*
X197369903Y-79533656D01*
X197374788Y-79530107D01*
X197374788Y-79530106D01*
X197374792Y-79530104D01*
X197525104Y-79379792D01*
X197525106Y-79379788D01*
X197525109Y-79379786D01*
X197650048Y-79207820D01*
X197650047Y-79207820D01*
X197650051Y-79207816D01*
X197746557Y-79018412D01*
X197812246Y-78816243D01*
X197845500Y-78606287D01*
X197845500Y-78393713D01*
X197812246Y-78183757D01*
X197746557Y-77981588D01*
X197650051Y-77792184D01*
X197650049Y-77792181D01*
X197650048Y-77792179D01*
X197525109Y-77620213D01*
X197374786Y-77469890D01*
X197202820Y-77344951D01*
X197202115Y-77344591D01*
X197194054Y-77340485D01*
X197143259Y-77292512D01*
X197126463Y-77224692D01*
X197148999Y-77158556D01*
X197194054Y-77119515D01*
X197202816Y-77115051D01*
X197258243Y-77074781D01*
X197374786Y-76990109D01*
X197374788Y-76990106D01*
X197374792Y-76990104D01*
X197525104Y-76839792D01*
X197525106Y-76839788D01*
X197525109Y-76839786D01*
X197650048Y-76667820D01*
X197650047Y-76667820D01*
X197650051Y-76667816D01*
X197746557Y-76478412D01*
X197812246Y-76276243D01*
X197845500Y-76066287D01*
X197845500Y-75853713D01*
X197812246Y-75643757D01*
X197746557Y-75441588D01*
X197650051Y-75252184D01*
X197650049Y-75252181D01*
X197650048Y-75252179D01*
X197525109Y-75080213D01*
X197374786Y-74929890D01*
X197202820Y-74804951D01*
X197202115Y-74804591D01*
X197194054Y-74800485D01*
X197143259Y-74752512D01*
X197126463Y-74684692D01*
X197148999Y-74618556D01*
X197194054Y-74579515D01*
X197202816Y-74575051D01*
X197224789Y-74559086D01*
X197374786Y-74450109D01*
X197374788Y-74450106D01*
X197374792Y-74450104D01*
X197525104Y-74299792D01*
X197525106Y-74299788D01*
X197525109Y-74299786D01*
X197650048Y-74127820D01*
X197650047Y-74127820D01*
X197650051Y-74127816D01*
X197746557Y-73938412D01*
X197812246Y-73736243D01*
X197845500Y-73526287D01*
X197845500Y-73313713D01*
X197812246Y-73103757D01*
X197746557Y-72901588D01*
X197650051Y-72712184D01*
X197650049Y-72712181D01*
X197650048Y-72712179D01*
X197525109Y-72540213D01*
X197374786Y-72389890D01*
X197202820Y-72264951D01*
X197013414Y-72168444D01*
X197013413Y-72168443D01*
X197013412Y-72168443D01*
X196811243Y-72102754D01*
X196811241Y-72102753D01*
X196811240Y-72102753D01*
X196633651Y-72074626D01*
X196601287Y-72069500D01*
X196138713Y-72069500D01*
X196106349Y-72074626D01*
X195928760Y-72102753D01*
X195928757Y-72102754D01*
X195757950Y-72158253D01*
X195726585Y-72168444D01*
X195537179Y-72264951D01*
X195365213Y-72389890D01*
X195214890Y-72540213D01*
X195089951Y-72712179D01*
X194993444Y-72901585D01*
X194927753Y-73103760D01*
X194914371Y-73188253D01*
X194894500Y-73313713D01*
X179495500Y-73313713D01*
X179495500Y-73311746D01*
X179461630Y-73097903D01*
X179420640Y-72971746D01*
X179394727Y-72891993D01*
X179394726Y-72891990D01*
X179303109Y-72712184D01*
X179296433Y-72699081D01*
X179169172Y-72523922D01*
X179016078Y-72370828D01*
X178850208Y-72250316D01*
X178807545Y-72194988D01*
X178801566Y-72125375D01*
X178834172Y-72063580D01*
X178850205Y-72049686D01*
X179016078Y-71929172D01*
X179169172Y-71776078D01*
X179296433Y-71600919D01*
X179394726Y-71408009D01*
X179461630Y-71202097D01*
X179495500Y-70988254D01*
X179495500Y-70771746D01*
X179461630Y-70557903D01*
X179394726Y-70351991D01*
X179394726Y-70351990D01*
X179296432Y-70159080D01*
X179169172Y-69983922D01*
X179016078Y-69830828D01*
X178850208Y-69710316D01*
X178807545Y-69654988D01*
X178801566Y-69585375D01*
X178834172Y-69523580D01*
X178850205Y-69509686D01*
X179016078Y-69389172D01*
X179169172Y-69236078D01*
X179296433Y-69060919D01*
X179394726Y-68868009D01*
X179461630Y-68662097D01*
X179495500Y-68448254D01*
X179495500Y-68231746D01*
X179461630Y-68017903D01*
X179416571Y-67879225D01*
X179394727Y-67811993D01*
X179394726Y-67811990D01*
X179344642Y-67713697D01*
X179296433Y-67619081D01*
X179169172Y-67443922D01*
X179016078Y-67290828D01*
X178840919Y-67163567D01*
X178648009Y-67065273D01*
X178648006Y-67065272D01*
X178442098Y-66998370D01*
X178335175Y-66981435D01*
X178228254Y-66964500D01*
X178011746Y-66964500D01*
X177940465Y-66975790D01*
X177797901Y-66998370D01*
X177591993Y-67065272D01*
X177591990Y-67065273D01*
X177399080Y-67163567D01*
X177307285Y-67230261D01*
X177223922Y-67290828D01*
X177223920Y-67290830D01*
X177223919Y-67290830D01*
X177070830Y-67443919D01*
X177070830Y-67443920D01*
X177070828Y-67443922D01*
X177037563Y-67489707D01*
X176943567Y-67619080D01*
X176845273Y-67811990D01*
X176845272Y-67811993D01*
X176778370Y-68017901D01*
X176744500Y-68231746D01*
X134270085Y-68231746D01*
X134300500Y-68078842D01*
X134300500Y-67921158D01*
X134300500Y-67921155D01*
X134300499Y-67921153D01*
X134292158Y-67879222D01*
X134269737Y-67766503D01*
X134269735Y-67766498D01*
X134209397Y-67620827D01*
X134209390Y-67620814D01*
X134121789Y-67489711D01*
X134121786Y-67489707D01*
X134010292Y-67378213D01*
X134010288Y-67378210D01*
X133879185Y-67290609D01*
X133879172Y-67290602D01*
X133733501Y-67230264D01*
X133733489Y-67230261D01*
X133578845Y-67199500D01*
X133578842Y-67199500D01*
X133421158Y-67199500D01*
X133421155Y-67199500D01*
X133266510Y-67230261D01*
X133266498Y-67230264D01*
X133122136Y-67290061D01*
X133074684Y-67299500D01*
X127425316Y-67299500D01*
X127377864Y-67290061D01*
X127233501Y-67230264D01*
X127233489Y-67230261D01*
X127078845Y-67199500D01*
X127078842Y-67199500D01*
X126921158Y-67199500D01*
X126921155Y-67199500D01*
X126766510Y-67230261D01*
X126766498Y-67230264D01*
X126620827Y-67290602D01*
X126620814Y-67290609D01*
X126489711Y-67378210D01*
X126489707Y-67378213D01*
X126378213Y-67489707D01*
X126378210Y-67489711D01*
X126290609Y-67620814D01*
X126290602Y-67620827D01*
X126230264Y-67766498D01*
X126230261Y-67766510D01*
X126199500Y-67921153D01*
X97894562Y-67921153D01*
X97831807Y-67879222D01*
X97704332Y-67826421D01*
X97704322Y-67826418D01*
X97568996Y-67799500D01*
X97568994Y-67799500D01*
X97568993Y-67799500D01*
X91568994Y-67799500D01*
X91431006Y-67799500D01*
X91431004Y-67799500D01*
X91295677Y-67826418D01*
X91295667Y-67826421D01*
X91168192Y-67879222D01*
X91053454Y-67955887D01*
X88455887Y-70553454D01*
X88379222Y-70668192D01*
X88326421Y-70795667D01*
X88326420Y-70795671D01*
X88326420Y-70795672D01*
X88310926Y-70873567D01*
X88299500Y-70931007D01*
X88299500Y-72931007D01*
X88299500Y-76931007D01*
X88299500Y-81931006D01*
X88299500Y-82068994D01*
X88299500Y-82068996D01*
X88299499Y-82068996D01*
X84500500Y-82068996D01*
X84500500Y-63624500D01*
X84520185Y-63557461D01*
X84572989Y-63511706D01*
X84624500Y-63500500D01*
X202375500Y-63500500D01*
X202442539Y-63520185D01*
G37*
%TD.AperFunction*%
%TD*%
M02*
