M48
; DRILL file KiCad 10.0.5 date 2026-09-09T21:50:23
; FORMAT={-:-/ absolute / metric / decimal}
; #@! TF.CreationDate,2026-09-09T21:50:23-03:00
; #@! TF.GenerationSoftware,Kicad,Pcbnew,10.0.5
; #@! TF.FileFunction,Plated,1,2,PTH
FMAT,2
METRIC
; #@! TA.AperFunction,Plated,PTH,ViaDrill
T1C1.050
; #@! TA.AperFunction,Plated,PTH,ComponentDrill
T2C1.200
%
G90
G05
T1
X88.0Y-86.741
X88.0Y-94.0
X125.0Y-68.0
X129.0Y-114.5
X133.5Y-68.0
T2
X92.62Y-70.54
X92.62Y-73.08
X92.62Y-75.62
X92.62Y-78.16
X92.62Y-80.7
X92.62Y-93.38
X92.62Y-95.92
X92.62Y-98.46
X92.62Y-101.0
X92.62Y-103.54
X115.39Y-72.05
X115.39Y-74.59
X115.39Y-77.13
X115.39Y-79.67
X115.39Y-82.21
X115.39Y-84.75
X115.39Y-87.29
X115.39Y-89.83
X115.39Y-92.37
X115.39Y-94.91
X115.39Y-97.45
X115.39Y-99.99
X115.39Y-102.53
X115.39Y-105.07
X115.39Y-107.61
X140.82Y-72.05
X140.82Y-74.59
X140.82Y-77.13
X140.82Y-79.67
X140.82Y-82.21
X140.82Y-84.75
X140.82Y-87.29
X140.82Y-89.83
X140.82Y-92.37
X140.82Y-94.91
X140.82Y-97.45
X140.82Y-99.99
X140.82Y-102.53
X140.82Y-105.07
X140.82Y-107.61
X156.25Y-100.63
X156.25Y-103.17
X156.25Y-105.71
X156.25Y-108.25
X157.99Y-70.78
X157.99Y-73.32
X157.99Y-75.86
X157.99Y-78.4
X178.12Y-68.34
X178.12Y-70.88
X178.12Y-73.42
X178.12Y-75.96
X178.12Y-78.5
X178.12Y-81.04
X181.2Y-98.28
X181.2Y-100.82
X181.2Y-103.36
X181.2Y-105.9
X181.2Y-108.44
X181.2Y-110.98
X196.37Y-73.42
X196.37Y-75.96
X196.37Y-78.5
X196.37Y-81.04
X197.37Y-103.5
X197.37Y-106.04
X197.37Y-108.58
X197.37Y-111.12
M30
